<?xml version="1.0" encoding="utf-8"?>
<!-- Generator: Adobe Illustrator 19.1.1, SVG Export Plug-In . SVG Version: 6.00 Build 0)  -->
<svg version="1.1" id="Layer_1" xmlns="http://www.w3.org/2000/svg" xmlns:xlink="http://www.w3.org/1999/xlink" x="0px" y="0px"
	 viewBox="0 0 415 277" style="enable-background:new 0 0 415 277;" xml:space="preserve">
<style type="text/css">
	.st0{fill:#C1272D;}
</style>
<g>
	<path class="st0" d="M373.7,151.9l-2.4-6.3c-0.1-0.3-0.2-0.6-0.3-1c-0.5-0.4-0.9-0.8-1.3-1.1c0.2-0.1,0.4-0.2,0.6-0.2
		c0.1,0,0.2,0,0.4,0c-0.2-0.6-0.3-1.2-0.4-1.6l-1.3-6.4c-0.1-0.5-0.2-1.1-0.3-1.7c-0.4-0.4-0.8-0.8-0.9-1.1c0.2,0,0.5,0.1,0.7,0.2
		c-0.1-0.5-0.2-1-0.2-1.3l-1.2-6.4c-0.2-1.1-0.6-2.8-0.9-3.9l-0.6-2.2c-0.1,0-0.3,0-0.4,0c0.1-0.1,0.2-0.2,0.4-0.3l-1.1-3.8
		c-0.3-1.1-0.9-2.8-1.3-3.8l-1.8-4.4c-0.1-0.2-0.2-0.4-0.3-0.6l-0.4-1c0-0.1-0.1-0.3-0.1-0.4c-0.9-0.1-1.9-0.2-2.6-0.5
		c-0.1-0.6,0.1-1,0.3-1.4c0.8,0.1,1.1,0.5,1.8,0.6c-0.2-0.8-0.4-1.6-0.5-2.2l-0.9-6.5c-0.1-0.6-0.2-1.5-0.4-2.3c-0.1,0-0.2,0-0.3,0
		c-0.8,0-1.8-0.5-1.4-1.2c0.2,0.4,0.8,0.6,1.6,0.6c-0.1-0.4-0.2-0.8-0.2-1.1l-1.6-6.3c-0.3-1.1-0.8-2.8-1.2-3.8l-2.5-6.1
		c-0.4-1-0.9-2.7-1.2-3.8l-0.2-0.8c-0.4,0.1-0.8,0.2-1.3,0.2c-0.5-0.6-1-1.2-1-2.2c0.7,0.2,1.3,0.4,2,0.5l-0.9-4.1
		c-0.2-1.1-0.6-2.8-0.9-3.9l-1.2-4.5c-0.2,0-0.4,0.1-0.6,0.1c-1,0-1.3-0.6-1.7-1.2c-0.1,0-0.2,0-0.2,0c-0.5,0-0.7,0.3-0.8,0.6
		c-0.2,0.3-0.3,0.6-0.8,0.6c0,0,0,0-0.1,0c0.5-2.8-1.4-4.6-1-7.4c1,0.7,1,2.7,1.6,3.8c0.2,0.4,0.8,0.6,0.7,1.1
		c0.7,0.6,2.1,0.8,2.7,1.5l-0.2-0.8c-0.2-0.9-0.6-2.3-1-3.3c0,0,0,0-0.1,0l-0.4,0.2l-0.4-0.1c-2.7-0.7-2.6-2.9-2.5-4.7
		c0-1,0.1-2.1-0.4-2.7l-0.5-0.5l0.5-0.5c0.2-0.2,0.5-0.4,0.8-0.6c-0.2-0.6-0.3-1.2-0.4-1.7l-1.3-6.4c-0.2-0.9-1-1.6-1.9-1.6
		c-0.1,0-0.3,0-0.4,0l-6.2,1.4c-1.1,0.2-2.8,0.7-3.9,1l-6,1.8c-1.1,0.3-2.8,0.8-3.8,1.1l-6.1,1.7c-1.1,0.3-2.8,0.7-3.9,0.9l-6.2,1.3
		c-0.2,0.1-0.5,0.1-0.8,0.2c0.2,0.1,0.3,0.3,0.4,0.6c0,0.3-0.2,0.7-0.7,0.7c-0.1,0-0.1,0-0.2,0c0-0.4,0-0.7,0-1.1
		c-0.9,0.2-1.8,0.5-2.5,0.7l-6,2c-0.5,0.2-1.1,0.3-1.7,0.5c0.5,0.2,1,0.4,1.2,0.7l1.2,2.2l-3.8-1.6l0.3-0.9c-0.4,0.1-0.7,0.2-1,0.3
		l-6,1.9c-0.2,0.1-0.5,0.1-0.7,0.2c0.2,0.3,0.3,0.6,0.3,1.1c-0.7-0.1-1.1-0.4-1.5-0.8c-0.7,0.2-1.4,0.3-2,0.4l-2.9,0.4
		c0,0.6,0.3,0.9,0.4,1.5c-0.9-0.3-1.7-0.8-2.5-1.2l-1.3,0.2c-1.1,0.1-2.8,0.5-3.9,0.9l-1.2,0.4c0,0.1,0,0.2,0,0.3
		c-0.1-0.1-0.2-0.1-0.3-0.2l-4.5,1.5c-1,0.3-2.8,0.9-3.8,1.1l-1.3,0.3c0.1,0.4,0,0.9-0.3,1.3c-0.8-0.1-1.2-0.5-1.7-0.8l-2.8,0.7
		c-1.1,0.3-2.8,0.8-3.8,1.2l-5.9,2.3c-1,0.4-2.7,1-3.8,1.3l-6.1,1.8c-1.1,0.3-2.8,0.7-3.9,0.9l-6.3,1c-1.1,0.2-2.8,0.6-3.9,1l-1,0.3
		c0.2,0.2,0.3,0.4,0.6,0.4c-0.1,0.3-0.3,0.5-0.5,0.5c-0.3,0-0.7-0.3-0.8-0.7l-4.4,1.5c-1,0.4-2.8,0.9-3.8,1.1l-6.1,1.6
		c-1.1,0.3-2.8,0.7-3.9,1l-5.7,1.4c0.8,0.2,0.3,1,0.1,1.6c-0.4-0.4-1-0.7-1-1.4c0.1,0,0.1,0,0.2,0c0.2,0,0.4-0.1,0.4-0.2l-0.2,0.1
		c-0.9,0.2-2.3,0.6-3.4,0.9c-0.1,0.9-0.7,1-1.5,1c-0.1,0-0.3,0-0.4,0c-0.1,0-0.3,0-0.4,0c-0.3,0-0.7,0-1,0.1c-0.4,1.6,0.7,2,2.2,2
		c0.3,0,0.7,0,1.1,0c-0.4,0.3-0.4,1-0.3,1.6c-0.7,0-1.3,0-2,0c0,1.8,0.2,3,1.3,4.4c-0.1,0-0.3,0-0.4,0c-3,0-1.3-2.7-2.9-3.6
		c1.2-0.8-0.2-1.5-0.3-2.7c0-0.5,0.7-1,0.7-1.1c-0.1-0.2-0.1-0.3-0.2-0.4l-2.3,0.7c-0.7,0.2-1.8,0.5-2.7,0.7
		c0.3,0.1,0.5,0.3,0.7,0.4c-0.2,0.2-0.3,0.4-0.3,0.8c-0.2,0-0.3,0-0.5,0c-0.8,0-1.1-0.4-1.1-1.1l-1,0.1c0.2,0.2,0.3,0.5,0.3,0.9
		c-0.3,0-0.5,0-0.7,0c-1.2,0-1.2,0.5-1.3,1.1c-0.5-0.3-1-1-1.2-1.6l-2.4,0.3c-1.1,0.1-2.8,0.6-3.8,1.1l-5.8,2.8
		c-1,0.5-2.7,1.1-3.7,1.3l-6.1,1.5c-1.1,0.3-2.8,0.6-3.9,0.8l-6.3,1c-1.1,0.2-2.8,0.5-3.9,0.8l-0.7,0.2c0.2,0.4,0.2,0.8,0,1.2
		c-0.3,0.6-0.8,0.7-1.1,0.7h-0.4l-0.3-0.3c-0.2-0.2-0.4-0.5-0.4-0.9c0,0-0.1-0.1-0.1-0.1l-3,0.8c-1.1,0.3-2.8,0.8-3.8,1.1l-6,1.9
		c-1.1,0.3-2.8,0.9-3.8,1.3l-6,2.1c-1,0.4-2.8,0.9-3.8,1.2l-2.4,0.6c0.6,0.3,1.3,0.7,0.7,1.2c-0.1,0-0.2,0-0.2,0
		c-0.7,0-0.8-0.5-0.8-1.1l-3.4,0.9c-1.1,0.3-2.8,0.6-3.9,0.7l-1,0.1c-0.2,0.3-0.5,0.4-0.9,0.4c-0.2,0-0.4-0.1-0.6-0.2c0,0,0,0,0,0
		l-3.9,0.5c-1.1,0.1-2.8,0.5-3.9,0.9l-2.2,0.8c0,0.1,0,0.2,0,0.3c-0.3,0-0.6,0-0.9,0l-2.9,1.1c-0.6,0.2-1.3,0.5-2.1,0.7
		c0,0.1-0.2,0.2-0.3,0.2c-0.1,0-0.1,0-0.2,0c-0.4,0.1-0.8,0.3-1.2,0.4l0,0c0,0.6-0.9,1.2-1.6,1.2c0.1-0.4,0.3-0.6,0.6-0.9l-2.9,0.9
		c0.2,0.3-0.1,0.9-0.3,1c-0.4-0.1-0.3-0.5-0.3-0.8l-1.4,0.5c-1,0.3-2.8,0.7-3.9,0.8l-6.4,0.8c-1.1,0.1-2.8,0.5-3.9,0.9l-6,2.1
		c-1,0.4-2.7,1-3.8,1.4l-6,2.2c-1,0.4-2.8,0.9-3.8,1.1l-5.8,1.3c-1.1,0.2-1.7,1.3-1.4,2.4l1.6,5.9c0.3,1.1,0.7,2.8,0.9,3.9l1.2,6.4
		c0.2,1.1,0.6,2.8,0.8,3.9l1.5,6.3c0.3,1.1,0.8,2.8,1.2,3.8l2.3,6.1c0.4,1,1,2.7,1.3,3.8l1.9,6.2c0.3,1,0.7,2.8,0.9,3.9l0.9,6.5
		c0.1,1.1,0.6,2.8,0.9,3.9l2.1,6.1c0.4,1,0.9,2.8,1.2,3.8l1.1,3.7c0,0,0.1,0,0.1,0c0,0.2,0,0.3,0,0.5l0.6,2c0.3,1.1,0.7,2.8,0.9,3.9
		l1.1,6.4c0.2,0.9,0.5,2.4,0.8,3.4c0.9,0.8,2.4,2,2.2,2.9c-0.6-0.2-1.1-0.5-1.5-0.8l1.5,4.5c0.3,1,0.8,2.8,1.1,3.9l1.5,6.3
		c0,0,0,0,0,0.1c0.1,0,0.3,0,0.4,0c0.1,0.4-0.1,0.6-0.2,0.9c0.2,1,0.6,2.2,0.8,2.9l1.9,6.4c0.2,0.9,1,1.4,1.9,1.4
		c0.2,0,0.4,0,0.6-0.1l6.2-1.9c1.1-0.3,2.8-0.7,3.9-0.9l6.3-0.9c0.8-0.1,1.8-0.4,2.8-0.6c0.2-0.4,0.7-0.6,1.3-0.6
		c0.1,0,0.3,0,0.4,0.1l5.3-2c1-0.4,2.7-1,3.7-1.4l6-2.2c1-0.4,2.8-0.8,3.9-0.9l2.2-0.2c0.5-0.8,2.5-0.3,2.2-1.8
		c0.8,0.2,1.2,0.7,1.4,1.4l0.6-0.1c0.7-0.1,1.7-0.3,2.6-0.6c0-0.3,0-0.5,0-0.8c0.1,0,0.2-0.1,0.3-0.1c0.3,0,0.4,0.2,0.4,0.5
		c0,0.1,0,0.1,0,0.2c0.2-0.1,0.4-0.1,0.6-0.2l5.9-2.5c1-0.4,2.7-1,3.8-1.2l1.3-0.3c-0.7-0.1-1.3-0.1-1.3-0.8
		c0.3-0.1,0.6-0.2,0.9-0.2c0.5,0,0.9,0.2,1,0.8l4.3-0.9c0.5-0.1,1.1-0.2,1.7-0.3c-0.5-0.2-0.4-0.7-0.1-1c0.7,0.1,0.7,0.6,0.5,1
		c0.7-0.1,1.3-0.3,1.8-0.3l6.2-1.2c1.1-0.2,2.8-0.6,3.9-0.9l6.1-1.6c1.1-0.3,2.8-0.8,3.9-1.1l6.1-1.7c1.1-0.3,2.8-0.8,3.8-1.2l6-2
		c1-0.3,2.8-0.8,3.9-1l6.3-1.1c1.1-0.2,2.8-0.7,3.8-1.1l2.6-1.1c-0.6-0.3-1.2-0.6-2.1-0.7c0.9-1.2-0.7-1.4-0.7-2.7
		c0.6-0.1,0.9-0.6,1.7-0.6c0.1,0,0.2,0,0.3,0c-0.5,1.6,0.9,1.6,0.7,3.3c0.1,0,0.2,0,0.2,0c0.3,0,0.4-0.2,0.5-0.3
		c0.1-0.2,0.2-0.3,0.5-0.3c0.1,0,0.3,0,0.4,0.1c0,0.3,0,0.4,0.2,0.5l1.6-0.7c0.5-0.2,1.1-0.4,1.7-0.6c-0.7-0.6-1.2-1.4-1.2-2.4
		c0.9,0.7,1.3,0.8,1.9,0.8c0.1,0,0.1,0,0.2,0c0.1,0,0.1,0,0.2,0c0.2,0,0.4,0,0.7,0c0.2,0.8-0.4,1.1-0.9,1.4c0.4-0.1,0.9-0.2,1.2-0.3
		l1.9-0.4c0.3-0.1,0.7-0.2,1-0.2l3.3-0.6c1.1-0.2,2.8-0.6,3.9-0.9l6.1-1.5c0.4-0.1,0.9-0.2,1.4-0.4c-0.1,0-0.1,0-0.2-0.1
		c0.9-0.2,1-1,1.3-1.6c0.1,0,0.1,0,0.2,0c0.7,0,0.9,0.5,1,1c0,0,0.1,0,0.1,0l4.7-1.7c-0.4-0.3-0.6-0.8,0-1.2c1,0,1.7,0.2,2.4,0.4
		c0.9-0.3,2-0.6,2.8-0.8l6.1-1.4c1.1-0.2,2.8-0.7,3.9-1.1l6-1.9c1-0.3,2.8-0.8,3.8-1.1l2.3-0.6c0.1-0.1,0.2-0.3,0.3-0.3
		c0.3,0,0.6,0,0.9,0l1.4-0.4c0-0.3,0-0.7,0-1c0.1,0,0.2-0.1,0.2-0.1c0.3,0,0.5,0.4,0.5,0.7c0,0,0,0.1,0,0.1l0.4-0.1
		c1.1-0.3,2.8-0.7,3.9-0.9l3.8-0.8c0-0.1,0-0.2,0-0.3c0.2,0,0.3,0.1,0.4,0.2l1.9-0.4c0.8-0.2,1.9-0.4,2.8-0.6c-1-0.1-1-1-1.2-1.7
		c-1.1-1.1-2.7-1.8-2.6-3.8c0.1,0,0.1,0,0.2,0c1.4,0,0.9,1.5,1.5,2.2c0.8,0,1.5,0,2.3,0c0.6,0.6,1.2,2.3,0.7,3.2c0.1,0,0.2,0,0.3,0
		l6.3-1c1.1-0.2,2.8-0.6,3.9-0.9l0.6-0.2c-0.6,0-1.3-0.2-1.7-0.7c-0.3-0.3-0.3-0.8-0.1-1.1l0.2-0.4l0.5-0.1c0.2,0,0.4-0.1,0.5-0.1
		c0.7,0,1.1,0.4,1.3,0.6l0.4,0l0.3,0.5c0.1,0.3,0.1,0.6-0.1,0.9c0,0,0,0.1-0.1,0.1l2.2-0.7c-0.1-0.3-0.3-0.6-0.6-1.1
		c0.1,0,0.1,0,0.2,0c0.4,0,0.4,0.3,0.5,0.6c0.1,0,0.2,0.1,0.3,0.1c0.2,0,0.3-0.2,0.3-0.3c0-0.2,0.1-0.3,0.3-0.3c0.1,0,0.2,0,0.3,0.1
		c0.1,0.2,0.3,0.4,0.4,0.6l0.4-0.1c1.1-0.3,2.8-0.8,3.9-1l5-1.2c0.1-0.1,0.2-0.3,0.3-0.4c0.1,0.1,0.3,0.2,0.4,0.2l0.4-0.1
		c1.1-0.3,2.8-0.7,3.9-1l3.5-0.9c0,0,0-0.1,0-0.1c0.1,0,0.1,0,0.2,0.1l2.4-0.6c1.1-0.3,2.8-0.9,3.8-1.3l5.9-2.4
		c0.4-0.1,0.8-0.3,1.3-0.5c-0.1-0.1-0.1-0.3-0.1-0.5c0.2-0.2,0.6-0.3,1-0.3c0.3,0,0.6,0.1,0.8,0.2c0.3-0.1,0.6-0.2,0.8-0.3l6-1.9
		c1-0.3,2.8-0.7,3.9-0.8l6.5-0.5c0.5,0,1.2-0.1,1.9-0.2c0.1-1.3-0.5-2-0.4-3.3c1,0.2,1,1.3,1.6,1.9c0.1,0.5,0.8,0.5,1.2,0.8l0.8-0.2
		c0.1-0.6,0.4-1.2,0.6-1.7c1,0.2,0.4,0.7,0.3,1.4c0,0,0,0,0.1,0.1l3.8-1.1c1.1-0.3,2.8-0.9,3.8-1.3l5.9-2.4c1-0.4,2.7-0.9,3.8-1.1
		l6.2-1.3c1.1-0.2,2.8-0.6,3.9-0.9l1-0.3c-0.5-0.3-0.9-0.6-1.1-0.8c-0.1,0-0.2,0-0.3,0c-0.6,0-0.4,0.6-0.7,0.8
		c-0.9-0.1-1.4-0.7-2.3-0.8c-0.1-0.6,0.1-1,0.3-1.4c0.8,0.5,1.5,0.7,2.4,0.7c0.6,0,1.3-0.1,2.2-0.2c0.1,0.6,0.6,0.9,1.1,1.1l3.5-1
		c0,0,0-0.1,0-0.1c0.1,0,0.2-0.1,0.3-0.1c0.1,0,0.1,0,0.2,0C373.7,153.8,374.1,152.8,373.7,151.9z M37.6,123.6c-0.1,0-0.2,0-0.3,0
		c-0.5,0-0.7-0.2-1-0.3c0-0.3,0.3-0.5,0.6-0.5C37.3,122.8,37.7,123.1,37.6,123.6z M39.9,126.9c-0.2,0-0.4,0-0.7,0
		c-0.1-0.4,0.3-0.5,0.3-0.8c0.2,0,0.4,0,0.7,0C40.3,126.5,39.9,126.5,39.9,126.9z M40.3,125.6c-0.3,0-0.5-0.2-0.1-0.7
		C40.8,125.4,40.6,125.6,40.3,125.6z M41.5,145.4c-0.4,0-0.8-0.3-0.7-0.8c0.1,0,0.2,0,0.3,0c0.5,0,0.7,0.2,1,0.3
		C42.2,145.3,41.8,145.4,41.5,145.4z M42.2,140.2c-0.2,0-0.3-0.1-0.3-0.2c0-0.1,0.1-0.2,0.1-0.2c0.1,0,0.1,0,0.2,0.1
		c0.1,0,0.2,0.1,0.3,0.1c0,0,0,0,0,0C42.5,140.2,42.3,140.2,42.2,140.2z M371.7,149.6c0.4,0.1,0.7,0.4,0.7,0.8c-0.1,0-0.1,0-0.1,0
		c-0.4,0-0.5-0.3-0.8-0.3C371.4,149.9,371.7,149.8,371.7,149.6z M370.4,145.2c0,0.2,0,0.4,0,0.5c-0.3,0-0.7,0-1,0c0-0.2,0-0.4,0-0.5
		C369.7,145.2,370.1,145.2,370.4,145.2z M368.4,139.7c1.2,0,1.5,0.8,1.4,1.9c-1.1-0.2-1.5-0.9-1.6-1.9
		C368.2,139.7,368.3,139.7,368.4,139.7z M365.8,129.6c-0.3,0.2-0.5,0.2-0.8,0.2c-1.1,0-2-1.2-1.2-2.1
		C365,127.9,365.5,128.7,365.8,129.6z M364.5,138.1c1.1,1.1,0.2,2.3,1.3,3.5c-1.9-0.2-2.3-1.7-2.6-3.3c0,0,0.1,0,0.1,0
		c0.2,0,0.4,0.1,0.5,0.1c0.2,0.1,0.3,0.1,0.4,0.1C364.4,138.6,364.5,138.5,364.5,138.1z M365.3,136.4c-0.4,0-0.8-0.5-0.9-1
		c0.1,0,0.2,0,0.3,0c0.7,0,1.1,0.2,1,0.8C365.6,136.3,365.5,136.4,365.3,136.4z M364.8,122.8c-0.3,0-0.7,0-1,0c0-0.2,0-0.4,0-0.5
		c0.3,0,0.7,0,1,0C364.8,122.4,364.8,122.6,364.8,122.8z M363.5,116.5c0.1,0,0.2,0,0.2,0c0.9,0,0.8,0.9,0.7,1.7
		c-0.2,0-0.3,0.1-0.4,0.1C363,118.2,362.9,117,363.5,116.5z M363.1,133.5c0-0.1,0.4-0.3,0.8-0.3c0.1,0,0.2,0,0.2,0.1
		c0.4,0.3-0.3,0.8-0.8,0.8C363.1,134,363,133.8,363.1,133.5z M362.5,149.3c-0.1,0-0.2,0-0.2,0c-1.1,0-0.8-1.8-0.4-2.2
		C362.9,147.2,362.4,148.5,362.5,149.3z M360.8,139.5c0.7,0.1,0.6,0.7,1.3,0.8c0.1,0.9-0.9,0.9-0.7,1.9c-0.4-0.3-0.6-0.7-1.3-0.8
		C360,140.4,360.6,140.1,360.8,139.5z M360.2,126.1c0-0.2,0.2-0.2,0.3-0.2c0.2,0,0.3,0.1,0.3,0.2c-0.2,0.1-0.3,0.2-0.5,0.2
		C360.3,126.3,360.2,126.2,360.2,126.1z M361.7,145.5c-0.1,0-0.1,0-0.2,0c0.1-0.6,0.4-1.1,0.7-1.6
		C363.3,144,362.7,145.5,361.7,145.5z M362.2,122c0.9,0.1,0.5,0.7,0.2,0.7C362.2,122.7,362,122.5,362.2,122z M361.8,129.9
		c-0.8,0-1.3-0.4-1.3-1.1c0.1,0,0.3,0,0.4,0C361.6,128.8,362,129.2,361.8,129.9z M360.2,109.4c0.4,0.1,0.7,0.3,0.7,0.8
		c-0.1,0-0.1,0-0.2,0c-0.4,0-0.5-0.3-0.8-0.3C359.9,109.7,360.2,109.7,360.2,109.4z M358,117.2c0.5,0,0.9,1.2,1.2,1.7
		c-0.1,0.2-0.3,0.2-0.5,0.2c-0.2,0-0.3,0-0.5-0.1c-0.2,0-0.3-0.1-0.5-0.1c-0.2,0-0.4,0.1-0.5,0.5c-1.9-1.1,0.3-2.6-1-3.8
		c0.2-0.2,0.5-0.2,0.7-0.2c0.2,0,0.4,0.1,0.7,0.2c-0.1,1-0.5,1,0,1.9C357.7,117.4,357.8,117.2,358,117.2z M359.2,119.8
		c-0.1,0.2-0.3,0.3-0.3,0.5c-0.3-0.1-0.3-0.3-0.7-0.3c0.1-0.2,0.3-0.3,0.3-0.5C358.8,119.6,358.9,119.8,359.2,119.8
		C359.2,119.8,359.2,119.8,359.2,119.8z M357.9,125.3c0,0.3,0,0.5,0,0.8c-0.1,0-0.1,0-0.2,0c-0.6,0-0.9-0.3-0.8-0.8
		C357.2,125.3,357.5,125.3,357.9,125.3z M358.5,99c-0.1,0-0.1,0-0.2,0c-0.7,0-0.9-0.4-0.8-1.1c0.4,0,0.9,0,1.3,0
		C359,98.5,358.6,98.7,358.5,99z M357.2,94.7c1,0.2,1.2,1.2,1.6,1.9c-0.1,0-0.1,0-0.2,0c-0.2,0-0.4-0.1-0.5-0.2
		c-0.1-0.1-0.3-0.2-0.5-0.2c-0.1,0-0.2,0-0.4,0.1C357.2,95.8,357.2,95.2,357.2,94.7z M356.6,100.4c0.1,0,0.2-0.1,0.3-0.1
		c0.3,0,0.4,0.2,0.4,0.5c0,0.2-0.1,0.5-0.4,0.5c-0.1,0-0.2,0-0.3-0.1C356.6,101,356.6,100.7,356.6,100.4z M356.6,101.8
		c0.2-0.1,0.3-0.1,0.4-0.1c0.3,0,0.3,0.2,0.3,0.5c0,0.2,0,0.5,0.3,0.5c0,0,0.1,0,0.1,0c-0.1,0.2-0.2,0.3-0.4,0.3
		C356.8,102.9,356.3,102.3,356.6,101.8z M357.5,109.7c-0.2,0.4-0.4,0.5-0.7,0.5c-0.6,0-1.4-0.6-1.6-1.1c-0.7,0.1-0.7,0.7-1,1.1
		c-0.7-0.4-1.3-0.9-1.3-1.9c0.3-0.2,0.8-0.3,1.3-0.3c0.2,0,0.4,0,0.6,0C355,109.3,356.6,109.2,357.5,109.7z M354.2,113.5
		c-0.1,0-0.2,0-0.2,0c-0.5-0.6-0.7-0.5-0.3-1.4c0.2,0,0.4,0,0.6,0c0.6,0,1.1,0.1,1.3,0.3C355.5,113.1,355.1,113.5,354.2,113.5z
		 M354.9,115.2c0,0.2-0.2,0.3-0.3,0.3c-0.4,0-0.9-0.4-0.7-0.8c0.1,0,0.1,0,0.2,0C354.6,114.6,354.4,115.1,354.9,115.2z M355.1,97.7
		c-1.1,0-1.1-1.6-0.9-1.9c0.8,0.2,1.1,0.9,1,1.9C355.2,97.7,355.2,97.7,355.1,97.7z M355.2,104.2c0,0.2-0.2,0.2-0.3,0.2
		c-0.2,0-0.3-0.1-0.3-0.2c0-0.1,0.1-0.2,0.1-0.2c0.1,0,0.1,0,0.2,0.1C355,104.2,355.1,104.2,355.2,104.2
		C355.2,104.2,355.2,104.2,355.2,104.2z M354.3,106.1c-0.4,0-0.9,0-1.3,0c-0.5-0.3-0.5-1.3,0-1.6C353.5,104.9,355,105.5,354.3,106.1
		z M355.9,92.2c-0.2,0.1-0.4,0.1-0.5,0.1c-1,0-1.6-1.4-2.4-1.8c0.3-0.2,0.5-0.2,0.8-0.2C354.7,90.4,355.6,91.5,355.9,92.2z
		 M353.3,77.5c-0.4-0.1-0.7-0.3-0.7-0.8C353,76.8,353.3,77,353.3,77.5z M352,81c0.2,0,0.4,0,0.7,0c0,0.2,0,0.4,0,0.5
		c-0.2,0-0.4,0-0.7,0C352,81.4,352,81.2,352,81z M352.3,97.7c0,0.3-0.2,0.4-0.5,0.4c-0.6,0-1.6-0.5-1.8-0.9c0,0,0.1,0,0.1,0
		C351,97.1,351.6,97.5,352.3,97.7z M351.6,87c1,0.1,0.6,0.8,0.2,0.8C351.7,87.8,351.5,87.6,351.6,87z M351,76.1
		c0.1,0,0.2-0.1,0.3-0.1c0.6,0,0.3,0.7,0.3,1.1C351,77.1,350.9,76.7,351,76.1z M351,78.8c0.7,0.2,1.3,0.8,0.7,1.4
		c-0.1,0-0.2,0-0.2,0C350.5,80.2,350.5,79.2,351,78.8z M350,81.8c0.1,0,0.2,0,0.3,0c0.7,0,1.1,0.2,1,0.8c-0.2,0-0.4,0-0.6,0
		C350.1,82.7,349.7,82.5,350,81.8z M350,100.7c-0.1,0-0.2,0-0.2,0c-0.9,0-0.9-1-0.4-1.4C350,99.4,350,100,350,100.7z M349.6,91.4
		c0.2,0.7-0.7,0.5-0.7,1.1c-0.1,0-0.2,0-0.3,0c-0.3,0-0.4-0.2-0.6-0.3c-0.1-0.2-0.3-0.3-0.6-0.3c-0.1,0-0.2,0-0.3,0
		c0.3-0.6,0.7-0.8,1.2-0.8C349,91.2,349.3,91.3,349.6,91.4z M346.7,79.4c0.8,0.3,1.9,1.1,1.3,1.6C347.4,80.6,346.5,80.4,346.7,79.4z
		 M347.3,65.7c1.2,0.1,1.4,2.2,0,2.2c-0.1,0-0.2,0-0.3,0C346.8,66.9,347.6,66.7,347.3,65.7z M346.4,70.3c0.4,0,0.9,0.4,0.7,0.8
		c-0.4-0.1-0.5-0.5-1-0.5C346.1,70.4,346.2,70.3,346.4,70.3z M346,72c0.6,0.3,1.8,0.9,1,1.6c0,0,0,0-0.1,0
		C345.9,73.6,345.4,72.5,346,72z M342.1,59.9c0.6,0,1.2,0.2,1.7,0.4c0.5,0.2,1,0.4,1.4,0.4c0.1,0,0.1,0,0.2,0
		c-0.3,0.4-0.8,0.5-1.4,0.5c-1.2,0-2.6-0.5-3.2-0.8C341.1,60.1,341.6,59.9,342.1,59.9z M344.2,77.2c-0.3,0-0.6-0.1-0.8-0.3
		c0.9-0.2,0.9-1.1,2-1.1C345.6,76.6,344.9,77.2,344.2,77.2z M340.4,35.9c0.1,0,0.1,0,0.2,0c0.5,0,0.4,0.5,0.5,0.8
		c-0.3-0.1-0.3-0.3-0.7-0.3c0,0,0,0,0,0C340.4,36.3,340.4,36.1,340.4,35.9z M338.5,45c1.4,0.1,2.1,1.6,1,2.2
		C338.6,46.9,337.6,45.8,338.5,45z M333.8,39.5c0.6,0.4,0.3,0.7,0.1,0.7C333.6,40.2,333.4,39.9,333.8,39.5z M328.1,39.7
		c0.7,0,1,0.4,1.5,0.6c0,0.3-0.2,0.4-0.5,0.4c-0.5,0-1.3-0.5-1.5-1C327.8,39.7,327.9,39.7,328.1,39.7z M327.3,43.1
		c0-0.9-0.4-1.9-1.3-2.7C327.2,40.4,329.6,42.6,327.3,43.1z M323.3,44.7c1.3,0.6,2.6,1.3,3,2.7C324.4,47.3,321.5,46.2,323.3,44.7z
		 M320.6,41.7c0.5,0,0.7,0.2,0.9,0.4c0.2,0.2,0.4,0.4,0.9,0.4c0.1,0,0.2,0,0.3,0c0.2,0.6-0.6,0.4-0.7,0.8c-1-0.2-1.7-0.6-1.6-1.6
		C320.4,41.7,320.5,41.7,320.6,41.7z M320.7,44.4c0.7,0,1.1,0.2,1,0.8c-0.1,0.1-0.3,0.2-0.5,0.2c-0.4,0-0.8-0.5-0.9-1
		C320.5,44.4,320.6,44.4,320.7,44.4z M319,45.5c0.9,0.1,1.1,0.7,1.3,1.4C319.7,46.6,318.8,46.6,319,45.5z M312.5,42.8
		c0.1-0.1,0.2-0.2,0.4-0.2c0.2,0,0.5,0.1,0.6,0.2c0.2,0.3-0.2,0.5-0.5,0.5C312.7,43.2,312.3,43.1,312.5,42.8z M312.5,48
		c0.1,0,0.1,0,0.1,0c0.4,0,0.5,0.3,0.8,0.3c0.1,0.2-0.2,0.3-0.5,0.3C312.6,48.6,312.2,48.4,312.5,48z M310.1,49.3c0.2,0,0.4,0,0.7,0
		c0,0.2,0,0.4,0,0.5c-0.2,0-0.4,0-0.7,0C310.1,49.7,310.1,49.5,310.1,49.3z M308.8,49.6c-0.6-0.4-1.7-1.2-1-1.9
		C308.2,48.3,309.7,48.8,308.8,49.6z M307.5,45c1.4,0.2,1,1.8,0.3,2.5C306.3,47,306.4,45.8,307.5,45z M302.8,44.7
		c0.7,0,1.5,0.8,1.4,1.6c0,0-0.1,0-0.1,0c-1.2,0-0.8-1.3-1.9-1.4C302.4,44.8,302.6,44.7,302.8,44.7z M301.9,47.1
		c-0.1,0.7,0.6,0.6,0.3,1.4c-0.1,0-0.1,0-0.2,0c-1,0-1.5-0.5-1.4-1.4C301,47.1,301.5,47.1,301.9,47.1z M298.6,50.2
		c-0.2,0.1-0.4,0.1-0.6,0.1c-1.2,0-1.7-1.5-2.1-2.6C297.7,47.8,298,49.1,298.6,50.2z M293.2,49.3c0.6,0,0.9,0.3,0.8,0.8
		c-0.1,0-0.1,0-0.2,0c-0.6,0-0.9-0.3-0.8-0.8C293.1,49.3,293.1,49.3,293.2,49.3z M285.6,53.6c0.8,0,1.8,0.4,2.5,0.7
		c0.2,1-0.7,1-0.7,1.9c-1.3-0.3-1.2-1.7-2.8-1.7c-0.1,0-0.3,0-0.5,0C284.3,53.8,284.9,53.6,285.6,53.6z M280.8,52.3
		C280.9,52.3,280.9,52.3,280.8,52.3c1,0,1,1.1,0.7,1.4C280.8,53.7,280.8,53,280.8,52.3z M281.8,54.2c0,0.2,0,0.4,0,0.5
		c-0.3,0-0.7,0-1,0c0-0.2,0-0.4,0-0.5C281.2,54.2,281.5,54.2,281.8,54.2z M279.5,50.7c0.2,0,0.4,0,0.7,0c0,0.2,0,0.4,0,0.5
		c-0.2,0-0.4,0-0.7,0C279.5,51.1,279.5,50.9,279.5,50.7z M277.2,54.8c0.7,0,1.5,0.3,1.6,0.8c-0.5-0.1-0.8-0.2-1.1-0.2
		c-0.7,0-1.1,0.4-1.8,0.8c0.1-0.3-0.1-0.5-0.3-0.5C275.7,55.1,276.5,54.8,277.2,54.8z M274.9,59.7c0.1,0,0.1,0,0.2,0
		c0.6,0,0.9,0.3,0.8,0.8C275.6,60.2,274.7,60.4,274.9,59.7z M274.3,54.8c-0.4-0.1-0.7-0.3-0.7-0.8C274,54.1,274.3,54.3,274.3,54.8z
		 M269.7,54.9c-0.3,0-0.5-0.2,0-0.7C270.8,54.5,270.1,54.9,269.7,54.9z M269,51.5c0.9,0.1,1.5,2.2,0.2,2.2c-0.1,0-0.1,0-0.2,0
		C269,53,269,52.2,269,51.5z M266.9,53.7c0.8,0,1.5,0.2,2,0.8c-0.5-0.2-0.9-0.3-1.3-0.3c-0.6,0-1.2,0.2-1.7,0.4
		c-0.5,0.2-1.1,0.4-1.7,0.4c-0.4,0-0.8-0.1-1.2-0.3C263.7,54.5,265.4,53.7,266.9,53.7z M268.3,61.9c-0.1,0.2-0.3,0.3-0.5,0.3
		c-0.5,0-1.1-0.5-0.8-1.1C267.7,61.2,267.7,61.8,268.3,61.9z M255.8,64.6c0.2,0,0.4,0,0.7,0c0,0.3,0,0.5,0,0.8c-0.3,0-0.7,0-1,0
		C255.4,65,255.8,65,255.8,64.6z M247.9,60c0.2,0,0.4,0.1,0.7,0.2c-0.2,0.2-0.3,0.4-0.3,0.8C247.2,60.9,247.3,60,247.9,60z
		 M244,64.9c0.6,0.1,0.8,0.5,0.7,1.1c-0.1,0-0.1,0-0.2,0C243.6,66,243.5,65.3,244,64.9z M242.3,67.4c0.2,0,0.4,0,0.6,0
		c0.6,0,1.1,0.1,1.3,0.3c0,0.4-0.5,0.6-1,0.6C242.7,68.2,242.1,67.9,242.3,67.4z M241,66.5c0.1,0,0.1,0,0.1,0c0.4,0,0.5,0.3,0.8,0.3
		c-0.1,0.2-0.3,0.3-0.3,0.5c-0.2,0-0.4,0-0.7,0C241,67.1,241,66.8,241,66.5z M235.4,65.2c0.2,0,0.4,0,0.7,0c0,0.2,0,0.4,0,0.5
		c-0.2,0-0.4,0-0.7,0C235.4,65.5,235.4,65.4,235.4,65.2z M235.1,66.8c1.2,0.2,2.3,0.5,3.3,0.8c-0.3,0.4-0.7,0.5-1.2,0.5
		c-0.2,0-0.4,0-0.5,0c-0.2,0-0.4,0-0.6,0c-0.4,0-0.9,0.1-1.3,0.3C234.2,68,234.9,67.4,235.1,66.8z M230.7,66.8c0,0,0.1,0,0.1,0
		c0.6,0.5-0.1,0.8-0.7,1.1c0.4,0.7,1.2,1.9-0.6,1.9c0,0-0.1,0-0.1,0C229.6,68.3,228.4,66.8,230.7,66.8z M231.1,72.3
		c-0.3,0.4-0.6,0.5-1,0.5c-1,0-2.2-0.8-2.9-1.1c0.2-0.3,0.5-0.4,0.8-0.4C228.9,71.3,230.1,72.3,231.1,72.3z M224.9,65.7
		c0.2,0,0.3,0.1,0.5,0.2c0.2,0.1,0.4,0.2,0.6,0.2c0,0,0.1,0,0.1,0c0.3-1.3-1.4-1-1.3-2.2c1.5,0.1,2.4,0.6,2.6,1.6
		c-2,0.2-0.6,1.7-1,2.2c-0.1,0-0.2,0-0.2,0c-0.6,0-0.7-0.4-0.9-0.8c-0.1-0.4-0.2-0.8-0.9-0.8c0,0,0,0,0,0
		C224.6,65.8,224.8,65.7,224.9,65.7z M219.3,66.8c0.2-0.1,0.4-0.1,0.5-0.1c0.1,0,0.3,0,0.4,0c0.1,0,0.3,0,0.5,0c0.3,0,0.6,0,0.9-0.2
		c-0.1,0.3,0.1,0.5,0.3,0.5c-0.6,0.4-1.8,0.4-2.6,0.5C219.3,67.4,219.3,67.1,219.3,66.8z M215.7,67.4c0.1,0,0.2,0,0.3,0
		c0.8,0,0.3,0.9,0,1.1C215,68.2,215.6,68,215.7,67.4z M215,71.7c0.2-0.2,0.7-0.3,1.2-0.3c0.5,0,0.9,0.1,1.2,0.3
		c-0.1,0.8-0.7,1.2-1,1.9C215.3,73.5,214.4,72.4,215,71.7z M213.5,75.4c0.2,0,0.4-0.1,0.5-0.1c0.2,0,0.5,0,0.7,0.2
		c0,0.4-0.5,0.6-1,0.6c-0.8,0-1.8-0.4-1.6-0.9c0.3,0.1,0.6,0.2,0.8,0.2C213.1,75.4,213.3,75.4,213.5,75.4z M211.4,72
		c0.3,0.1,0.3,0.3,0.7,0.3c0,0.2,0,0.4,0,0.5c-0.3,0.2-0.6,0.3-0.8,0.3C210.8,73.2,210.8,72.5,211.4,72z M208.4,75.3
		c0.2,0,0.4,0,0.6,0c0.7,0,1.1,0.2,1.4,0.6c-0.1,0.2-0.5,0.3-0.9,0.3C208.9,76.2,208.2,75.9,208.4,75.3z M206.4,72
		c0.6,0,1.2,0.6,1,1.3c0,0,0,0-0.1,0c-0.4,0-0.6-0.2-0.8-0.4c-0.2-0.2-0.4-0.4-0.8-0.4h0C205.9,72.2,206.1,72,206.4,72z M204.1,72
		C204.2,72,204.2,72,204.1,72c1.2,0,0.6,2.1,0.3,2.5c-1-0.5-2.4-0.6-2.6-1.6C202.3,72.3,204.1,72.9,204.1,72z M200.2,73.6
		c-0.2,0-0.4,0-0.6,0c-0.6,0-1.1-0.1-1.3-0.3c0-0.3,0-0.5,0-0.8c0.3-0.2,0.6-0.3,0.9-0.3C199.9,72.3,200.6,72.7,200.2,73.6z
		 M197.9,71.2c0.2,0,0.4,0,0.7,0c0,0.2,0,0.4,0,0.5c-0.2,0-0.4,0-0.7,0C197.9,71.5,197.9,71.4,197.9,71.2z M197.3,75.5
		c1,0,1,0.8,1.6,1.1c-0.1,0.3-0.3,0.4-0.5,0.4c-0.6,0-1.5-0.8-1.5-1.5C197,75.5,197.2,75.5,197.3,75.5z M197.2,78.6
		c0.3,0.1,0.3,0.3,0.7,0.3c-0.1,0.2-0.3,0.3-0.3,0.5c-0.3-0.1-0.3-0.3-0.7-0.3c0,0,0,0,0,0C197,78.9,197.2,78.8,197.2,78.6z
		 M195.2,81.6c-0.6,0-1.1-0.3-0.9-1.1c0.4,0,0.8,0.2,1,0.2c0.3,0,0.4-0.2,0.3-0.8c0.1,0,0.1,0,0.1,0c0.4,0,0.5,0.3,0.8,0.3
		C196.9,81,196,81.6,195.2,81.6z M195.3,75.8c0,0,0,0.1,0,0.3c0,0.2-0.1,0.4-0.1,0.4C195.2,76.3,195.3,75.9,195.3,75.8z M195.3,76.9
		c0.4,0.1,0.7,0.3,0.7,0.8c-0.1,0-0.1,0-0.1,0c-0.4,0-0.5-0.3-0.8-0.3C195,77.2,195.3,77.2,195.3,76.9z M194.3,78.6
		c0.9,0.4,1,0.6,0.7,1.4C194.6,79.5,193.6,79.1,194.3,78.6z M190.3,78.6c0.7,0,0.7,0.7,0.7,1.4C190.6,79.5,189.7,79.1,190.3,78.6z
		 M184.1,75.3c0.4,0,0.9,0,1.3,0c0,0.2,0,0.4,0,0.5c-0.4,0-0.9,0-1.3,0C184.1,75.6,184.1,75.5,184.1,75.3z M181.9,80.3
		c0.4,0,0.8,0.2,0.9,0.8c-0.2,0-0.3-0.1-0.4-0.1c-0.4,0-0.5,0.2-0.7,0.3c-0.2,0.2-0.3,0.3-0.7,0.3c-0.1,0-0.1,0-0.2,0
		C180.5,80.8,181.2,80.3,181.9,80.3z M177.6,78.6c0.4,0,0.9,0.2,1.2,0.2c-0.1,0.4-0.4,0.5-0.7,0.5c-0.5,0-1-0.3-1.3-0.5
		C177.1,78.6,177.3,78.6,177.6,78.6z M176.6,80.6c0.1,0,0.2,0,0.4,0c0.1,0,0.2,0,0.4,0c1.2,0,2.4-0.1,2.5-1.5
		c1.6,0.5-0.1,2.7-1.3,2.7c-0.4,0.1-0.3,0.7-0.3,1.1c-0.8-0.8-2.6-0.9-3-2.2C175.6,80.6,176.1,80.6,176.6,80.6z M161.2,85.9
		c0.1,0,0.1,0,0.2,0c-0.2,0.8,0.3,1,0.3,1.6c-0.1,0.1-0.3,0.1-0.4,0.1c-0.6,0-1.3-0.7-1.2-1.5C160.3,86,160.7,85.9,161.2,85.9z
		 M146.7,85.9c0.1,0,0.3,0,0.5,0c0.2,0,0.3,0,0.5,0c0.1,0,0.2,0,0.3,0c-0.2,0.2-0.3,0.4-0.3,0.8c-0.3,0-0.7,0-1,0
		c0.1-0.3-0.1-0.5-0.3-0.5C146.2,86,146.4,85.9,146.7,85.9z M144.9,85.4c0.2,0,0.4,0,0.7,0c0,0.2,0,0.4,0,0.5c-0.2,0-0.4,0-0.7,0
		C144.9,85.7,144.9,85.6,144.9,85.4z M134.7,96c0.3,0,0.7,0,1,0c0.1,1.1-0.4,1.1,0,1.9c0,0-0.1,0-0.1,0
		C134.4,98,134.4,96.3,134.7,96z M124.8,94.4c0.2,0,0.4,0,0.7,0c0,0.2,0,0.4,0,0.5c-0.2,0-0.4,0-0.7,0
		C124.8,94.8,124.8,94.6,124.8,94.4z M125.5,96.6c1.1,0.6,0.9,1.7,0.7,2.5c-1.1-0.3-1.8-0.8-2.3-1.6
		C124.7,97.4,125.5,97.4,125.5,96.6z M122.2,97.9c0.2,0,0.4,0,0.7,0c0,0.2,0,0.4,0,0.5c-0.2,0-0.4,0-0.7,0
		C122.2,98.3,122.2,98.1,122.2,97.9z M118.9,101c0.4,0.1,0.7,0.3,0.7,0.8c-1.5,0.4-3.2,0.6-4.3,0.8c-0.1-0.7,0.5-0.8,0.7-1.4
		c0.6,0,1.6,0.5,2.2,0.5C118.6,101.7,118.9,101.6,118.9,101z M115.3,97.7c0.8,0.1,1.5,0.9,1,1.4C115.7,98.8,115.1,98.5,115.3,97.7z
		 M113.3,96c0.8,0,0.8,1,0.3,1.4C112.8,97.4,112.8,96.4,113.3,96z M107,100.1L107,100.1C107,100.1,107,100.1,107,100.1
		C107,100.2,107,100.2,107,100.1z M107,100.3c0,0.1,0,0.2,0,0.3C107,100.5,107,100.5,107,100.3z M100.5,97.4c1.1,0.2,1.2,1.2,2,1.6
		c-0.1,0.3-0.3,0.4-0.5,0.4c-0.7,0-1.8-0.7-2.4-0.9C99.6,97.9,100.1,97.8,100.5,97.4z M97.8,101.7c0.3,0,0.8,0.3,1,0.3
		c0,0.2-0.2,0.3-0.3,0.3c-0.3,0-0.8-0.3-1-0.3C97.5,101.8,97.6,101.7,97.8,101.7z M91.9,103.9c0.4,0,0.9,0.4,0.7,0.8
		c-0.4-0.1-0.5-0.5-1-0.5C91.6,104,91.7,103.9,91.9,103.9z M85.6,101.8c0.1,0,0.2,0,0.3,0c0.3,0,0.4,0.2,0.5,0.4
		c0.1,0.2,0.2,0.4,0.5,0.4c0,0,0.1,0,0.1,0c-0.1,0.2-0.2,0.2-0.4,0.2C86.1,102.8,85.5,102.2,85.6,101.8z M80.7,103.4
		c1,0.1,1.7,0.4,2,1.1c-0.6,0.1-1.1,0.2-1.5,0.2c-0.4,0-0.8-0.1-1.1-0.5C80.3,104,80.8,103.9,80.7,103.4z M81.7,106.7c0,0,0,0,0,0.1
		C81.7,106.7,81.7,106.7,81.7,106.7z M81.7,106.9c0,0.2-0.1,0.4-0.1,0.5C81.6,107.3,81.6,107.2,81.7,106.9L81.7,106.9z M78.3,111.7
		c0.3,0,0.7,0.2,1.1,0.2c0,0.2-0.2,0.3-0.4,0.3c-0.1,0-0.3,0-0.5,0c-0.2,0-0.3,0-0.5,0c-0.1,0-0.2,0-0.3,0
		C77.8,111.8,78,111.7,78.3,111.7z M77.1,108.6c0.3,0.1,0.3,0.3,0.7,0.3c-0.1,0.2-0.3,0.3-0.3,0.5c-0.3-0.1-0.3-0.3-0.7-0.3
		c0,0,0,0,0,0C76.8,108.9,77.1,108.9,77.1,108.6z M73.5,109.1c0.2,0,0.4,0,0.7,0c0,0.3,0,0.5,0,0.8c-0.3,0-0.7,0-1,0
		C73,109.5,73.4,109.5,73.5,109.1z M71.8,108c0.7,0,1.1,0.2,1,0.8c-0.1,0.1-0.3,0.2-0.5,0.2c-0.4,0-0.8-0.5-0.9-1
		C71.6,108,71.7,108,71.8,108z M69.2,112.4c0.2,0,0.4,0,0.7,0c0,0.2,0,0.4,0,0.5c-0.2,0-0.4,0-0.7,0
		C69.2,112.8,69.2,112.6,69.2,112.4z M65.1,107l0.3-0.4H66c0.6,0,0.8,0.3,1.1,0.7l0.8,1.1l-1.7,0.8l-0.4-0.6
		C64.9,107.6,64.8,107.4,65.1,107z M64.9,109.4c0.1,0,0.1,0,0.2,0c1.5,0,0.8,1.8,1.8,2.2c-0.1,0.1-0.3,0.1-0.4,0.1
		C65.6,111.7,64.6,110.6,64.9,109.4z M61.3,111.3c0.1,0,0.1,0,0.2,0c0.7,0,0.9,0.4,0.8,1.1C61.8,112.2,61,112.2,61.3,111.3z
		 M58,112.7c0-0.1,0.4-0.3,0.8-0.3c0.1,0,0.2,0,0.2,0.1c0.4,0.3-0.3,0.8-0.8,0.8C58,113.2,57.8,113.1,58,112.7z M55.5,114.2
		c0.1,0,0.1,0,0.2,0.1c0.1,0,0.2,0.1,0.3,0.1c0,0,0,0,0,0c0,0.2-0.2,0.2-0.3,0.2c-0.2,0-0.3-0.1-0.3-0.2
		C55.4,114.2,55.4,114.2,55.5,114.2z M54.4,111.6c0.2,0,0.4,0,0.7,0c0.2,0.6-0.5,0.5-1,0.5C54.1,111.9,54.4,111.9,54.4,111.6z
		 M51.7,114.3c0.2,0,0.4,0,0.7,0c0,0.2,0,0.4,0,0.5c-0.2,0-0.4,0-0.7,0C51.7,114.7,51.7,114.5,51.7,114.3z M49.3,113.4
		c0.6,0,0.8,0.3,0.8,0.6c0,0.3-0.2,0.6-0.5,0.6c-0.3,0-0.7-0.2-1.1-1C48.8,113.4,49,113.4,49.3,113.4z M47.1,113.5
		c0.5,0.4,1.2,1.2,0.7,1.6C46.9,114.8,46.8,114.3,47.1,113.5z M47.5,137.9c-0.3,0-0.4-0.2-0.5-0.4c-0.1-0.2-0.2-0.4-0.5-0.4
		c0,0-0.1,0-0.1,0c0.1-0.2,0.2-0.2,0.4-0.2c0.4,0,1,0.6,0.9,1.1C47.7,137.8,47.6,137.9,47.5,137.9z M49.1,151.5
		c-0.2,0.1-0.3,0.1-0.4,0.1c-0.5,0-0.5-0.5-0.9-0.6c0.1-0.2,0.3-0.3,0.5-0.3C48.7,150.6,49.3,151,49.1,151.5z M50.1,153.7
		c-0.2,0-0.4,0-0.7,0c0-0.2,0-0.4,0-0.5c0.2,0,0.4,0,0.7,0C50.1,153.3,50.1,153.5,50.1,153.7z M51.7,145.2c-0.4,0-0.9,0-1.3,0
		c0-0.2,0-0.4,0-0.5c0.4,0,0.9,0,1.3,0C51.7,144.8,51.7,145,51.7,145.2z M57.3,191.6c1.3,0.3,0.2,1.3-0.3,1.6
		C55.6,192.9,57.3,192.3,57.3,191.6z M59,204.2c-1.3-0.2-1.4-1.4-2-2.2c0.3-0.2,0.9-0.2,1-0.5c0.1,0,0.2,0,0.2,0
		c0.5,0,0.6,0.3,0.7,0.6c0.1,0.3,0.3,0.6,0.7,0.6c0.2,0,0.4,0,0.6-0.1C59.7,203,59.6,203.8,59,204.2z M60.2,197.7
		c-0.3-0.3-0.6-0.6-1-0.6c-0.3,0-0.5,0.1-0.9,0.5c0.1-0.7,0.1-2.9,1.3-2.9c0.3,0,0.6,0.1,1,0.5c-0.8,1.8,0.9,1.4,1,3
		c-0.1,0.1-0.3,0.1-0.4,0.1C60.8,198.3,60.5,198,60.2,197.7z M60.6,193c0.1,0,0.2,0,0.3,0c0.7,0,1.1,0.2,1,0.8c-0.1,0-0.2,0-0.3,0
		C60.9,193.8,60.5,193.6,60.6,193z M61.3,203.4c0-0.9,1.1-0.9,1-1.9c1.2,0.7,0,2.4,1.3,3.3C62.3,204.7,62.3,203.6,61.3,203.4z
		 M64.5,224.6c-0.2,0-0.4-0.1-0.2-0.5c0-0.1,0.4-0.3,0.8-0.3c0.1,0,0.2,0,0.2,0.1C65.7,224.2,64.9,224.6,64.5,224.6z M70.2,220.3
		c-2.2-0.1-4.1-0.4-4.6-1.9c-0.5,0-1.1,0-1.6,0c-0.6-1.5,1.5-0.8,2-1.4c1,0.8,1.8,1.6,2.6,2.5c0.1,0,0.2,0.1,0.3,0.1
		c0.2,0,0.3-0.2,0.3-0.3c0-0.2,0.1-0.3,0.3-0.3c0.1,0,0.2,0,0.3,0.1C69.7,219.6,70.4,219.5,70.2,220.3z M72.5,232.3
		c-0.2,0-0.3-0.1-0.3-0.2c0-0.1,0.1-0.2,0.1-0.2c0.1,0,0.1,0,0.2,0.1c0.1,0,0.2,0.1,0.3,0.1c0,0,0,0,0,0
		C72.8,232.2,72.6,232.3,72.5,232.3z M74.8,232.9c0,0.2-0.1,0.3-0.1,0.4C74.7,233.1,74.8,232.9,74.8,232.9L74.8,232.9z M75.1,225.1
		c-0.3,0-0.5-0.2,0-0.7C76.3,224.6,75.6,225.1,75.1,225.1z M76.4,227.1c0.1-0.2,0.3-0.3,0.3-0.5c0.3,0.1,0.3,0.3,0.7,0.3
		c0,0,0,0,0,0c-0.1,0.2-0.3,0.3-0.3,0.5C76.8,227.4,76.7,227.1,76.4,227.1L76.4,227.1z M77.3,229.1c-0.1,0-0.1,0-0.2,0
		c-0.3-0.7-0.4-1.1,0.7-1.1c0.1,0,0.2,0,0.3,0C78.2,228.6,78,229.1,77.3,229.1z M92.7,224.7c-2.5,0-4.7-1.6-3.2-3.1
		c1.6,0.7,3.3,1.5,4,3C93.3,224.7,93,224.7,92.7,224.7z M95.5,224.9c0,0-0.1,0-0.1,0c-0.7,0-0.9-0.4-1.1-0.8
		c-0.2-0.4-0.4-0.8-1.1-0.8c-0.1,0-0.3,0-0.4,0c-0.1-0.6,0.1-1,0.3-1.4C95.1,222,95.8,223.1,95.5,224.9z M93.2,219.5
		c0-0.3,0-0.5,0-0.8c0.1,0,0.2-0.1,0.3-0.1c0.3,0,0.4,0.2,0.4,0.5c0,0.2-0.1,0.5-0.4,0.5C93.4,219.6,93.3,219.5,93.2,219.5z
		 M96.2,218.9c-0.3-0.1-0.3-0.3-0.7-0.3c0,0,0,0,0,0c0.1-0.2,0.3-0.3,0.3-0.5c0.3,0.1,0.3,0.3,0.7,0.3c0,0,0,0,0,0
		C96.4,218.6,96.2,218.7,96.2,218.9z M101.6,225.2c-0.1,0-0.1,0-0.2,0c-0.8-0.7-0.8-2.3,0-3c0.3,0,0.7,0,1,0
		C103,223,103.1,225.2,101.6,225.2z M100.8,218.7c0-0.2,0-0.4,0-0.5c0.2,0,0.4,0,0.7,0c0,0.2,0,0.4,0,0.5
		C101.2,218.7,101,218.7,100.8,218.7z M107,221.9l-0.3,1l-1.1-0.4c-1.1-0.4-1.3-1.3-1.4-1.8l0-0.1l-1.1,0.5l-0.4-1
		c0-0.1-0.2-0.3-0.3-0.5c-0.4-0.6-1.2-1.7-0.1-2.7l0.6-0.6l0.7,0.4C105.3,217.5,107.6,219.7,107,221.9z M107.4,218.7
		c0.7,0.2,0.9,0.7,1,1.4C107.7,219.9,107.1,219.6,107.4,218.7z M112.6,217.6c-0.2,0-0.4,0.1-0.5,0.1c-0.6,0-0.8-0.4-1.1-0.6
		c0-0.2,0.2-0.2,0.5-0.2C112,216.8,112.8,217.1,112.6,217.6z M114.9,223.3c-0.6-0.1-0.8-0.5-0.7-1.1
		C114.9,222.3,115,222.7,114.9,223.3z M117.6,220c-1.4-0.1-2.1-0.6-2.3-1.6c0.1,0,0.1,0,0.2,0C116.8,218.4,117.8,218.7,117.6,220z
		 M120,214.8c-0.6,0-0.9-0.3-0.8-0.8c0.1,0,0.1,0,0.2,0c0.6,0,0.9,0.3,0.8,0.8C120.1,214.8,120.1,214.8,120,214.8z M123.2,219.5
		c-0.8-0.4-1.8-0.7-2.6-1.1c-0.1-0.4,0.3-0.4,0.8-0.4c0,0,0.1,0,0.1,0c0,0,0.1,0,0.1,0c0.6,0,1.2,0,1.3-0.7
		C124.2,217.6,122.8,218.4,123.2,219.5z M121.2,214.6c0.2,0,0.3,0,0.5,0c1.2,0,1.5,0.7,1.5,1.7C122,216.1,121.3,215.5,121.2,214.6z
		 M124.8,218.7c-0.2,0-0.4,0-0.7,0c0-0.2,0-0.4,0-0.5c0.2,0,0.4,0,0.7,0C124.8,218.3,124.8,218.5,124.8,218.7z M131.2,217.6
		C131.1,217.6,131.1,217.6,131.2,217.6c-0.9-0.6,0.4-0.7,0.6-1.4C132.8,216.3,132.1,217.6,131.2,217.6z M139.3,214.3
		c0.1-0.3,0.6-0.2,1-0.3C140.2,214.3,139.7,214.3,139.3,214.3z M152.6,208c0,0-0.1,0-0.2,0c0.3-0.2,0.1-0.8,0.7-0.8
		c0.1,0,0.2,0,0.3,0C153.5,207.7,153.2,208,152.6,208z M154.8,206.4c-0.2,0-0.4,0-0.6,0c-0.8,0-1.5-0.1-1.7-0.6
		c0-0.6,0.4-0.8,0.8-0.8C154,205,155,205.7,154.8,206.4z M156.1,204.5c-0.7-0.1-0.6-0.7-1.3-0.8c-0.2-1,1.2-0.7,1-1.6
		c0,0,0.1,0,0.1,0C157,202,156.4,204.1,156.1,204.5z M157.4,209.4c-0.2,0-0.4,0-0.7,0c0-0.2,0-0.4,0-0.5c0.2,0,0.4,0,0.7,0
		C157.4,209,157.4,209.2,157.4,209.4z M158.4,208.6c-0.3-0.1-0.3-0.3-0.7-0.3c0.1-0.2,0.3-0.3,0.3-0.5c0.3,0.1,0.3,0.3,0.7,0.3
		c0,0,0,0,0,0C158.7,208.2,158.4,208.3,158.4,208.6z M165.8,201.9c-0.1,0-0.1,0-0.2-0.1c-0.1,0-0.2-0.1-0.3-0.1c0,0,0,0,0,0
		c0-0.2,0.2-0.2,0.3-0.2c0.2,0,0.3,0.1,0.3,0.2C165.9,201.9,165.9,201.9,165.8,201.9z M169.2,200.8c-0.6,0-1.1,0.5-1.6,1.2
		c-0.3-0.8-1.5-1.8-0.7-2.7c1.6,0.2,2.9,0.7,3.3,1.9C169.8,200.9,169.5,200.8,169.2,200.8z M170.9,203.6c-1.1-0.5,0.6-1,0.3-1.6
		c0,0,0,0,0,0c0.6,0,0.1,1,0.3,1.4c-0.1,0-0.1,0-0.2,0C171.1,203.4,171,203.5,170.9,203.6z M171.9,205c-0.7,0-0.7-0.7-0.7-1.4
		c0.1,0,0.2,0,0.2,0C172.4,203.6,172.4,204.6,171.9,205z M175.2,203.9c-0.1,0-0.2,0-0.3,0c-0.5,0-0.7-0.2-1-0.3
		c0-0.3,0.3-0.5,0.6-0.5C174.9,203.1,175.3,203.4,175.2,203.9z M180.3,197.5c-0.3,0-0.6-0.1-0.5-0.5c0.1-0.1,0.2-0.2,0.4-0.2
		c0.2,0,0.5,0.1,0.6,0.2C180.9,197.4,180.6,197.5,180.3,197.5z M182.4,201.2c-0.1,0-0.1,0-0.2,0c-0.7,0-0.9-0.4-0.8-1.1
		c0.1,0,0.1,0,0.2,0C182.3,200.1,182.5,200.5,182.4,201.2z M184,202.5c-0.2,0-0.2,0.1-0.2,0.3c-0.4,0-0.3-0.5-0.3-0.8
		c0.1,0,0.1,0,0.2,0C184,202,184,202.3,184,202.5C184,202.5,184,202.5,184,202.5z M184.7,195.7c-0.2,0-0.4,0-0.7,0
		c0-0.2,0-0.4,0-0.5c0.2,0,0.4,0,0.7,0C184.7,195.4,184.7,195.5,184.7,195.7z M192,198.7c-0.2,0-0.4,0-0.7,0c0-0.2,0-0.4,0-0.5
		c0.2,0,0.4,0,0.7,0C192,198.4,192,198.5,192,198.7z M203.8,192.4C203.8,192.4,203.8,192.4,203.8,192.4c0-0.2,0-0.4,0-0.5
		c0.1,0,0.1,0,0.2,0c0.5,0,0.4,0.5,0.5,0.8C204.2,192.7,204.1,192.4,203.8,192.4z M209.1,191.4c-0.2,0-0.4,0-0.7,0
		c0-0.2,0-0.4,0-0.5c0.2,0,0.4,0,0.7,0C209.1,191,209.1,191.2,209.1,191.4z M219.5,193c-1.7,0-1.8-1.3-2.8-1.9
		c0.5-0.9,1.3-2.8-0.3-3.3c-0.3-1.2,0.7-1.3,1-1.9c1.8,1.7,2,4.9,2.3,7.1C219.6,193,219.5,193,219.5,193z M222.6,189.9
		c-0.2,0-0.3-0.1-0.3-0.2c0-0.1,0.1-0.2,0.1-0.2c0.1,0,0.1,0,0.2,0.1c0.1,0,0.2,0.1,0.3,0.1c0,0,0,0,0,0
		C222.9,189.9,222.7,189.9,222.6,189.9z M227.8,185.6c-0.2,0-0.4,0-0.7,0c0-0.2,0-0.4,0-0.5c0.2,0,0.4,0,0.7,0
		C227.8,185.3,227.8,185.4,227.8,185.6z M230.6,190.8c-0.7,0-1.3-0.1-1.1-0.8c0.1-0.1,0.3-0.2,0.5-0.2c0.5,0,1.2,0.4,1.1,1
		C231,190.8,230.8,190.8,230.6,190.8z M233.4,187.8c-0.3,0-0.7,0-1,0c-0.1-0.4,0.3-0.5,0.3-0.8c0.2,0,0.4,0,0.7,0
		C233.4,187.3,233.4,187.5,233.4,187.8z M237.4,183.4c0.5,0.5,1.2,0.8,2,0.8c0.4,0,0.8-0.1,1.3-0.3c0.4,0.5,1.1,1.5,0.3,2.2
		C238.9,186,236.3,185.5,237.4,183.4z M238.4,181c0.1,0,0.2,0,0.3,0c0.8,0,0.4,1,1,1.1c0,0.2-0.2,0.3-0.5,0.3c-0.4,0-1-0.2-1.1-0.3
		C237.9,181.5,238.3,181.3,238.4,181z M241.6,187.8c-0.2,0-0.3-0.2-0.2-0.8C242.3,187.1,241.9,187.8,241.6,187.8z M242.3,179.6
		c-0.2,0-0.4,0-0.7,0c0-0.2,0-0.4,0-0.5c0.2,0,0.4,0,0.7,0C242.3,179.2,242.3,179.4,242.3,179.6z M253.7,180.8c-1.8,0-3.4-0.7-2.5-2
		c1.1,0.6,2.6,1,3.3,1.9C254.2,180.7,254,180.8,253.7,180.8z M250.2,177.7c0.1-0.2,0.3-0.3,0.3-0.5c0.4,0.1,0.7,0.4,0.7,0.8
		c-0.1,0-0.1,0-0.1,0C250.7,178,250.6,177.7,250.2,177.7z M262.3,180.7l-0.3,0.6c-0.4,0.8-1,0.9-1.4,0.9c-0.6,0-1-0.3-1.4-0.6
		c-0.2-0.2-0.5-0.4-0.7-0.4l-0.1,0l-0.3,0.1c0,0.1-0.1,0.1-0.1,0.1c-0.1,0-0.1,0-0.2-0.1c-0.1,0-0.2-0.1-0.3-0.1c0,0,0,0,0,0
		l0.1-0.1l-0.1-0.1c-0.3-0.2-0.4-0.4-0.6-0.6c0,0-0.1,0-0.1,0c-0.4,0-0.9-0.4-0.7-0.8c0.1,0,0.1,0,0.2,0c0.1,0,0.2,0,0.3,0.1
		c0-0.1-0.1-0.3-0.1-0.4c0-0.2-0.1-0.7-0.3-0.8l-1.9-0.3l1.4-1.1c0.5-0.4,1.1-0.5,1.4-0.5c0.9,0,1.8,0.6,2.2,1.4
		c0.3,0.5,0.3,1.1,0.2,1.6c0.2,0.1,0.4,0.2,0.7,0.2c0.5,0.1,1,0.3,1.4,0.6L262.3,180.7z M258.5,174.7c0.1,0,0.1,0,0.2,0
		c0.5,0,0.3,0.5,0.8,0.6c0,0.2-0.2,0.3-0.4,0.3C258.6,175.6,258.1,175.2,258.5,174.7z M260.1,177.2c1.3,0.2,1.4,1.4,1.3,2.7
		c0,0-0.1,0-0.1,0C259.3,179.9,260.8,178.4,260.1,177.2z M268.3,181.2c-0.2,0-0.3-0.1-0.3-0.2c0-0.1,0.1-0.2,0.1-0.2
		c0.1,0,0.1,0,0.2,0.1c0.1,0,0.2,0.1,0.3,0.1c0,0,0,0,0,0C268.6,181.1,268.5,181.2,268.3,181.2z M269.3,179.9c0.8,0,1.3,0.4,1.3,1.1
		C270.2,180.7,269.2,180.7,269.3,179.9z M271,174.4c-0.8-0.3-1.8-1.4-1-2.2c0.2,0,0.3-0.1,0.5-0.1
		C271.7,172.2,271.4,173.9,271,174.4z M278.2,172.2c-0.7,0-0.1-1.2-0.3-1.6c0.1,0,0.2,0,0.2,0C279,170.6,278.5,172.1,278.2,172.2z
		 M282.5,172c-0.1,0-0.2,0-0.3,0c-0.7,0-0.2-0.9-0.4-1.4C282.6,170.6,282.5,171.3,282.5,172z M286.4,175.3c-0.1,0-0.2,0-0.3-0.1
		c0-0.3,0-0.5,0-0.8c0.1,0,0.2-0.1,0.3-0.1c0.3,0,0.4,0.2,0.4,0.5C286.8,175.1,286.7,175.3,286.4,175.3z M287.5,169.5
		c-0.5,0-0.9-0.4-0.7-1.1c0,0,0.1,0,0.1,0c0.2,0,0.4,0.1,0.6,0.1c0.2,0.1,0.3,0.1,0.6,0.1c0,0,0.1,0,0.1,0
		C288.2,169.2,287.8,169.5,287.5,169.5z M292.5,165.7c-0.1,0-0.1,0-0.2,0c-0.4-0.4-0.4-1,0-1.4c0,0,0,0,0.1,0c0.5,0,0.8,0.3,0.9,0.7
		C293.4,165.3,293.2,165.7,292.5,165.7z M297.6,171.4c-0.4,0-0.8-0.3-0.7-0.8c0.1,0,0.2,0,0.3,0c0.5,0,0.7,0.2,1,0.3
		C298.3,171.2,298,171.4,297.6,171.4z M297,168.8c-0.2,0-0.6,0-1.1,0.1c-0.5-1,1.5-0.1,1-1.1c0.9,0.3,1.4,0.9,1.6,1.6
		C297.8,169.1,297.7,168.8,297,168.8z M301.9,173.3c-1.4-0.1-0.6-1.9-2.1-1.9c-0.1,0-0.1,0-0.2,0c-0.1-0.2,0.1-0.3,0.3-0.3
		c0-0.2,0-0.4,0-0.5c0.1,0.3,0.5,0.5,0.8,0.5c0.3,0,0.6-0.2,0.5-0.8c0.3,0,0.7,0,1,0C301.4,171.3,302.7,172.5,301.9,173.3z
		 M299.6,169c0.2,0,0.4,0,0.6,0c0.6,0,1.1,0.1,1.3,0.3c-0.2,0.4-0.5,0.7-0.7,1.1C300,170.3,299.5,169.8,299.6,169z M303.2,172.8
		c0.5-1,0.1-2.7,0.7-3.6c0,0,0.1,0,0.1,0c0.6,0,0.3,0.8,0.9,0.8C304.1,170.8,304.5,172.5,303.2,172.8z M303.9,167
		c-0.2,0.1-0.4,0.2-0.6,0.2c-0.4,0-0.6-0.4-0.8-1l-2.3,1.4c-0.3,0.2-0.6,0.3-1,0.3c-1.3,0-3.2-1-3.2-2.3l0-0.9l1,0
		c0.4,0,0.7,0.1,1,0.2c0.1-0.3,0.3-0.4,0.3-0.7c0.1,0,0.2-0.1,0.3-0.1c0.6,0,0.3,0.7,0.3,1.1c-0.1,0-0.2,0-0.3,0
		c0.2,0.2,0.3,0.3,0.5,0.5c0.3,0.3,0.3,0.3,0.5,0.3l2.9,0c-0.2-0.7-0.4-1.7-0.9-1.9c-1,0.2,0.2,0.9,0,1.4c-1.4,0-1.8-1.1-1.3-1.9
		c2.2,0.2,3.3,0.7,4.9,0.8C304.8,165.3,302.8,166.1,303.9,167z M309.8,166c-0.1,0-0.2,0-0.3,0c-0.8,0-0.2-1.2-0.4-1.7
		c0.1,0,0.2,0,0.3,0C310.2,164.3,309.6,165.4,309.8,166z M311.8,169.2c-0.2,0-0.3-0.1-0.3-0.2c0-0.1,0.1-0.2,0.1-0.2
		c0.1,0,0.1,0,0.2,0.1c0.1,0,0.2,0.1,0.3,0.1c0,0,0,0,0,0C312.1,169.1,311.9,169.2,311.8,169.2z M314,162.4c-1.4,0-1.8-0.8-1.8-1.9
		c1.2,0.2,1.7,0.9,2,1.9C314.1,162.4,314,162.4,314,162.4z M316.7,163.8c-0.1,0-0.2,0-0.3,0c0-0.7-0.1-1.3,0.3-1.6
		C317.6,162.1,317.7,163.8,316.7,163.8z M316.4,159.4c0,0,0.1,0,0.1,0c0.8,0,0.1,1.3,0.9,1.4c-0.1,0.2-0.3,0.3-0.4,0.3
		C316.5,161,316.2,160,316.4,159.4z M324.6,164.6c-0.2,0-0.4,0-0.7,0c0-0.2,0-0.4,0-0.5c0.2,0,0.4,0,0.7,0
		C324.6,164.2,324.6,164.4,324.6,164.6z M329.9,165.1c-0.5-0.3-0.8-0.7-0.3-1.1C330.5,164.3,329.9,164.5,329.9,165.1z M332.5,165.1
		c-0.2,0-0.4,0-0.7,0c0-0.2,0-0.4,0-0.5c0.2,0,0.4,0,0.7,0C332.5,164.8,332.5,165,332.5,165.1z M332.9,156.7c-0.2,0-0.4,0-0.7,0
		c0-0.2,0-0.4,0-0.5c0.2,0,0.4,0,0.7,0C332.9,156.3,332.9,156.5,332.9,156.7z M334.2,155.3c-0.2,0-0.3,0-0.5,0
		c-0.5,0-0.9-0.1-1.2-0.3c-0.2-1.1,0.7-1.2,1.6-1.4C334.6,154,334.6,155,334.2,155.3z M336.2,159.9c0.2,0,0.4-0.1,0.7-0.1
		c1.3,0,3.3,0.6,3.2,2C339.3,160.8,336.3,161.6,336.2,159.9z M336.3,155.3c0-0.1,0.1-0.3,0.3-0.3c0.1,0,0.3,0.1,0.5,0.2
		c-0.2,0.2-0.4,0.3-0.5,0.3C336.4,155.6,336.3,155.5,336.3,155.3z M340.4,155.3c-0.8-0.1-0.8-0.7-0.3-1.1
		C340.9,154.3,340.9,154.9,340.4,155.3z M342.7,155c-0.2,0-0.4,0-0.7,0c0-0.7-0.5-0.6,0-1.1c0.2,0,0.4,0,0.7,0
		C343.3,154.5,342.7,154.3,342.7,155z M343.7,155.6c-0.6,0-0.3-0.7-0.3-1.1c0.4,0.2,0.6,0.6,0.7,1.1
		C343.9,155.6,343.8,155.6,343.7,155.6z M345.4,154.5c-0.8-0.1-0.8-0.7-0.3-1.1C345.8,153.5,345.8,154.1,345.4,154.5z M350.3,154.6
		c0,0.2-0.1,0.4-0.1,0.4s0-0.1,0.1-0.5c0-0.2,0-0.3,0-0.3S350.3,154.4,350.3,154.6z M350.6,153.7c-0.2,0-0.4,0-0.7,0
		c0-0.2,0-0.4,0-0.5c0.2,0,0.4,0,0.7,0C350.6,153.3,350.6,153.5,350.6,153.7z M353.3,151.5c0-0.3,0-0.5,0-0.8c0.1,0,0.1,0,0.2,0
		c0.6,0,0.9,0.3,0.8,0.8C353.9,151.5,353.6,151.5,353.3,151.5z M353.5,148.3c-1,0.4-2.7,1-3.8,1.3l-4.1,1.5
		c-0.1,0.3-0.3,0.6-0.9,0.6c-0.1,0-0.3,0-0.4,0c0,0,0,0-0.1-0.1l-0.5,0.2c-1,0.4-2.8,0.8-3.9,0.9l-3.1,0.3c1.2,0.3,0.3,1.1-0.9,1.1
		c-0.1,0-0.3,0-0.5,0c-0.3-1,1.1-0.5,1.3-1.1l-3.3,0.3c-0.5,0-1.1,0.2-1.6,0.3c0,0,0,0.1,0,0.2c-0.1,0-0.2-0.1-0.2-0.1
		c-0.7,0.2-1.4,0.4-2,0.6l-5.9,2.5c-1,0.4-2.7,1-3.8,1.2l-6.2,1.3c-1.1,0.2-2.8,0.6-3.9,0.8l-6.2,1.1c-1.1,0.2-2.8,0.6-3.9,0.9
		l-1.8,0.5c0.1,0.5,0.1,0.9,0,1.3c-0.4-0.3-0.7-0.6-1-1l-3.3,0.9c-0.9,0.2-2.3,0.6-3.4,0.9c0.1,0.2,0.4,0.5,0.8,0.6
		c-0.2,0.5-0.9,0.7-1.6,0.8c-0.1-0.4-0.2-0.7-0.3-1.1l-5.4,1.5c-1.1,0.3-2.8,0.8-3.8,1.2l-0.3,0.1c0.8,0.2,1.4,0.9,0.9,1.3
		c-0.6-0.2-0.9-0.7-1-1.3l-4.2,1.4c0.7,1,0.3,2.9,2.2,2.9c0,0,0,0,0.1,0c-0.6,0.4-0.7,1.3-1.6,1.4c0-1.1-1.3-1.1-2-1.6
		c0.1-0.7-0.1-1.6,0-2.2l-0.1,0c-1,0.3-2.6,0.7-3.7,0.9c0,0.1,0,0.1,0.1,0.2c-0.1,0-0.3-0.1-0.4-0.1l-6.1,1
		c-1.1,0.2-2.8,0.7-3.8,1.1l-5.9,2.6c-1,0.4-2.7,1-3.8,1.2l-1,0.2c0.7,0.2,0.2,1.1-0.4,1.1c-0.1,0-0.2,0-0.3,0
		c-0.4-0.8,0.5-0.7,0.7-1.1l-1.9,0.4c0.1,0.1,0.2,0.3,0.2,0.4c-0.1,0.2-0.3,0.3-0.5,0.3c-0.2,0-0.4-0.1-0.6-0.2
		c-0.2-0.1-0.5-0.2-0.8-0.2c-0.1,0-0.3,0-0.4,0.1c0,0,0,0,0,0l-1.2,0.2c-1.1,0.2-2.8,0.6-3.9,0.9l-1.7,0.4c0.2,0.1,0.3,0.4,0.2,0.7
		c-0.3-0.2-0.7-0.3-1.2-0.3c-0.1,0-0.1,0-0.2,0c0,0,0-0.1,0-0.1l-3.4,0.8c-1.1,0.3-2.8,0.8-3.8,1.2l-6,2.1c-0.8,0.3-1.9,0.6-2.9,0.9
		c0.4,0.2,0.6,0.5,0.6,1.4c-0.1,0-0.2,0-0.3,0c-1,0-1.2-0.7-1.9-1l-0.7,0.2c0,0.1,0,0.2,0,0.3c0,0.3,0.1,0.6,0.3,0.6
		c0,0,0.1,0,0.1,0c-0.1,0.2-0.2,0.3-0.3,0.3c-0.4,0-0.9-0.6-1-0.8c0,0,0,0,0,0l-2.5,0.6c0,0.2,0.1,0.4,0.2,0.5c-0.1,0-0.2,0-0.3,0
		c-0.4,0-0.7-0.1-1-0.3c0,0,0,0,0,0l0,0c-0.3,0.1-0.7,0.2-1,0.3c0.4,0.3,1.3,0.3,1.1,1.1c-0.7-0.2-1.7-0.2-2.3-0.5
		c0-0.1,0.1-0.2,0.1-0.3c-0.6,0.2-1.2,0.4-1.7,0.5l-2.3,0.7c0.1,0.1,0.2,0.1,0.3,0.1c-0.1,0.2-0.2,0.3-0.4,0.3
		c-0.2,0-0.3-0.1-0.5-0.2l-3.2,1c-0.7,0.2-1.6,0.5-2.5,0.7c0,0.1-0.1,0.1-0.1,0.1c-0.2,0-0.3,0-0.4,0c0,0-0.1,0-0.1,0
		c-0.3,0.1-0.5,0.1-0.7,0.2l-5.5,1.4c0,0.3,0,0.7-0.1,1.3c-0.6-0.2-1.1-0.6-1.6-0.9c-0.8,0.2-1.8,0.4-2.5,0.6
		c0.3,0.4,0.7,0.6,0.8,1.1c0.2-0.2,0.5-0.3,0.7-0.3c0.6,0,1.1,0.4,1.6,0.5c0,0.5,0,1.1,0,1.6c-0.9-1.3-2.8-1.8-4-2.8l-5.5,1.2
		c-1.1,0.2-2.8,0.6-3.9,0.8l-0.4,0.1c0,1.2-1.4,1.2-2.3,1.6c-0.5-0.6,0.3-1.2,1.2-1.4l-2.5,0.4c-0.4,0.5-0.9,0.9-1.7,1
		c-0.2,0-0.3,0.1-0.5,0.1c-0.5,0-0.9-0.2-1.2-0.5c-0.9,0.2-2,0.5-2.8,0.7l-6,1.8c-1.1,0.3-2.8,0.8-3.9,1l-6.1,1.5
		c-0.9,0.2-2.3,0.6-3.3,0.8c0.2,0.2,0.1,0.6-0.2,0.9c-0.5,0-0.7-0.3-0.6-0.6l-1.7,0.4c-0.1,0.1-0.2,0.1-0.4,0.2c0,0,0-0.1,0-0.1
		l-3.8,1c-1.1,0.3-2.8,0.9-3.8,1.3l-5.9,2.4c-1,0.4-2.7,1-3.8,1.3l-6,1.9c-1,0.3-2.8,0.7-3.9,0.8l-6.5,0.5c-1.1,0.1-2.9,0.4-3.9,0.7
		l-6.1,1.7c-1.1,0.3-2.8,0.9-3.8,1.3l-0.3,0.1c0.4,0.2,0.3,0.8,1,0.8c-0.1,0.2-0.3,0.3-0.6,0.3c-0.5,0-1.1-0.3-1.1-0.8l-4.9,2
		c-0.9,0.3-2.3,0.8-3.3,1c0,0.3,0.1,0.5,0.4,0.6c-0.2,0.5-1.1,1-1.7,1c-0.2,0-0.4,0-0.6-0.2c0.1-0.5,0.4-0.8,0.7-1.1l-5.4,1.1
		c-1.1,0.2-2.8,0.6-3.9,0.9l-5.9,1.7c-0.2,0.1-0.4,0.1-0.5,0.1c-0.9,0-1.7-0.6-2-1.4l-0.4-1.3c0,0,0,0,0,0c-0.2,0-0.3-0.1-0.3-0.2
		c0-0.1,0.1-0.2,0.1-0.2c0,0,0.1,0,0.1,0l-0.5-1.6c-0.3,0-0.7,0-0.7,0.3c0,0,0,0,0,0c-0.4,0-0.5-0.3-0.6-0.6
		c-0.1-0.3-0.2-0.6-0.6-0.6c-0.1,0-0.3,0-0.4,0.1c0.1-0.7,1-0.9,1.9-1l-0.3-1.1c-0.3-1.1-0.8-2.8-1.1-3.8l-1.7-6.3
		c-0.2-0.6-0.4-1.5-0.7-2.3c-0.4-0.2-0.5-0.6-0.4-1c0-0.1,0-0.1,0-0.2c0-0.1-0.1-0.2-0.1-0.3l-0.9-2.8c-0.1,0-0.2,0-0.4,0
		c0-0.2,0-0.4,0-0.5c0.1,0,0.1,0,0.2,0l-0.2-0.5c0,0.1,0,0.1,0,0.2c0,0-0.1,0-0.1,0c-0.2,0-0.4-0.1-0.6-0.1
		c-0.2-0.1-0.3-0.1-0.6-0.1c0,0-0.1,0-0.1,0c0.1,0.7,1.5,1.2,0.7,1.9c-1.2-0.7-1.7-2.4-0.7-3.6c0.4,0,0.7,0.1,0.9,0.2l-0.3-0.9
		c-0.3-1-0.8-2.8-1-3.9l-0.6-3.1c-0.9,1,0,1.4-0.3,2.2c-0.5-0.5-0.8-0.7-1.4-0.7c-0.4,0-0.9,0.1-1.5,0.2c0.1-1.1,2.6-0.2,2.3-1.6
		c0.3,0,0.6,0,1,0l-0.6-3.3c-0.2-1.1-0.6-2.8-0.8-3.9l-1.4-6.3c-0.2-1.1-0.7-2.8-1-3.9l-1.9-6.2c-0.3-1.1-0.8-2.8-1.1-3.8l-1.7-6.3
		c-0.3-1.1-0.7-2.8-0.9-3.9l-1.3-6.4c-0.2-1.1-0.7-2.8-1-3.9l-2-6.2c-0.3-1-0.9-2.8-1.2-3.8l-2-6.5c-0.3-1.1,0.3-2,1.4-2.2l6.6-1
		c1.1-0.2,2.8-0.6,3.9-0.9l6-2c1-0.3,2.8-0.9,3.8-1.1l6.1-1.6c1.1-0.3,2.8-0.8,3.8-1.2l5.9-2.3c1-0.4,2.7-1,3.8-1.3l6.1-1.8
		c1.1-0.3,2.8-0.7,3.9-0.9l6.3-1c1.1-0.2,2.8-0.6,3.9-1l1.4-0.5c-0.9-0.1-2-0.3-2.8-0.5c-0.1,0-0.1,0-0.2,0c-1.1,0-1.1,1-2.1,1.1
		c-0.9-0.7,0.4-0.8,0.3-1.6c-0.5,0.3-0.9,0.4-1.3,0.4c-0.7,0-1.4-0.4-2.3-0.7c-0.2-1-0.5-1.3,0.3-1.9c0.6,0,0.2,0.9,0.7,1.1
		c0.3-0.3,0.8-0.4,1.4-0.4c1.4,0,3.1,0.6,3.9,1.2c0.1,0,0.2,0,0.2,0c0.5,0,0.6-0.4,0.6-0.7c0.1-0.4,0.1-0.7,0.6-0.7
		c0.1,0,0.1,0,0.2,0c0,1.2,0.6,2,1.6,2.3l3.5-1.2c1-0.4,2.8-0.9,3.8-1.1l6.1-1.6c0.3-0.1,0.7-0.2,1-0.3c-0.6-0.6-0.9-1.2-0.6-1.7
		c0.6,0.5,1.1,1,1.8,1.4c0.6-0.2,1.2-0.3,1.7-0.4l2.8-0.7c-0.4-0.8-1.2-1.3-0.6-2c0.9,0.2,1,1.1,1.2,1.8l2.8-0.7
		c1.1-0.3,2.8-0.7,3.9-1l6-1.8c1.1-0.3,2.8-0.7,3.9-0.8l6.3-0.8c1.1-0.1,2.8-0.6,3.8-1.1l3.1-1.5c-0.3-0.2-0.5-0.6-0.4-1.1
		c0.7,0,1.1,0.3,1.3,0.7l1.9-0.9c1-0.5,2.7-1.1,3.7-1.3l6.1-1.5c-0.6-0.2-0.9-0.7-0.8-1.3c0.3,0,0.5,0,0.7,0c1.1,0,1.9,0.2,2.1,0.9
		c0.7-0.1,1.4-0.3,1.9-0.3l6.3-1c1.1-0.2,2.8-0.5,3.9-0.8l6.1-1.6c1.1-0.3,2.8-0.8,3.8-1.1l6-1.9c0.2-0.1,0.4-0.1,0.6-0.2
		c-1.2-0.8-2-1.8-1.9-2.8c1.3,0.2,1.2,1.5,2.3,1.9c0.7-0.1,1.1-0.1,1.4-0.1c0.3,0,0.5,0,0.9,0.1c0.2-0.1,0.4-0.1,0.5-0.2l0.1-0.1
		c-0.2-1.6-2.4-1.5-2.6-3c-0.8,0-1.5,0-2.3,0c0.2-0.5,0.6-0.6,1.1-0.6c0.3,0,0.7,0.1,1,0.1c0.3,0.1,0.7,0.1,1,0.1
		c0.5,0,0.8-0.2,0.9-0.7c1.6,0-0.1,1.1,0.3,1.9c0.9,0.5,1.6,1,2.3,1.6l4.1-1.5c0.7-0.2,1.6-0.5,2.5-0.8c-0.1-0.4,0.2-0.9,0.5-1.3
		c0.8,0.2,0.6,0.5,0.4,1c0.1,0,0.2-0.1,0.3-0.1l6.1-1.5c0.1,0,0.3-0.1,0.4-0.1c-0.3-0.1-0.5-0.3-0.6-0.5l-0.1-0.1l-1.4-1.1l2-0.3
		c-0.1-0.3-0.1-0.7,0.2-1.1c0.4-0.4,1-0.5,1.5-0.6l1.4-0.1c-1.3-0.4-2-1.6-1-2.3c1.1,0.4,1.9,1,2,2.2l0.5,0l-1.9,1.6
		c0.2,0.3,0.5,0.7,0.5,1.2l-0.1,0.6c0.2,0,0.4-0.1,0.6-0.1l5.1-0.6c-0.1-0.3,0-0.6,0.2-0.8c0.5,0,0.6,0.3,0.7,0.7l0.4,0
		c0.4-0.1,0.9-0.1,1.5-0.3c-0.1-0.1-0.2-0.3-0.2-0.6c0.3,0.2,0.6,0.4,1,0.5c0.6-0.2,1.2-0.3,1.6-0.5l6-2.2c0.8-0.3,2-0.7,3-1
		c0,0,0,0,0,0c-0.9,0-1-0.7-1-1.4c0,0,0.1,0,0.1,0c0.9,0,1,0.7,1.2,1.3c0.2-0.1,0.3-0.1,0.5-0.2l0.7-0.2c-0.3-0.2-0.2-0.7,0.1-0.9
		c0.5,0.1,0.7,0.4,0.6,0.7l4.6-1.4c1-0.3,2.8-0.7,3.9-0.8l6.3-0.8c1.1-0.1,2.8-0.5,3.9-0.9l6-2.1c1-0.4,2.7-1,3.8-1.4l0.3-0.1
		c-0.3-0.2-0.4-0.5,0-1.1c0.3,0.3,0.6,0.5,1,0.7l4.7-1.7c1-0.4,2.7-0.9,3.8-1.2l5.4-1.3c-0.8-0.4-2.2-0.3-2.7-0.8
		c0.2-0.4,0.6-0.6,1.2-0.6c0.4,0,0.9,0.1,1.3,0.2c0.5,0.1,0.9,0.2,1.3,0.2c0.1,0,0.1,0,0.2,0c0,0.5-0.2,0.7-0.4,0.9
		c0.7-0.2,1.6-0.4,2.4-0.6c0,0,0,0,0-0.1c0.1,0,0.2,0,0.2,0c0,0,0,0,0.1,0c0.4-0.1,0.8-0.2,1.1-0.3l6.1-1.5c1.1-0.3,2.8-0.7,3.9-0.8
		l6.2-1.1c1.1-0.2,2.8-0.6,3.9-0.8l2.9-0.7c-0.2-0.2-0.4-0.4-0.5-0.6c-0.3-0.1-0.6-0.1-0.8-0.1c-0.7,0-1.2,0.2-1.7,0.5
		c-0.5,0.2-0.9,0.5-1.7,0.5c0,0-0.1,0-0.1,0c-0.3-1.9,1.6-1.9,2-3.3c0.6,0.8,1.4,1.8,2.4,1.8c0.4,0,0.8-0.1,1.2-0.4
		c-0.2,0.9,0.8,0.8,1.2,1.2l1.1-0.3c1.1-0.3,2.8-0.8,3.8-1.2l5.1-1.9c0-0.1,0.1-0.3,0.3-0.4c0.2,0,0.3,0.1,0.4,0.1l0.4-0.2
		c0.2-0.1,0.4-0.1,0.7-0.1c0.1,0,0.2,0,0.3,0l0-0.2l1.1,0.2c0.1-0.2,0.2-0.4,0.4-0.6l0.2-0.2l0.3,0c0.1,0,0.2,0,0.3,0
		c1,0,1.5,0.6,1.5,1.7l0,0.1l0.7,0.1l-0.4,0.9c-0.2,0.5-0.7,0.8-1,0.9l0.9,1.2h-1.5l1.1,3.6c0.3,1,0.7,2.8,0.9,3.9l0.9,6.5
		c0,0.3,0.1,0.6,0.2,0.9c0.1-0.1,0.2-0.1,0.3-0.1c0.2,0,0.5,0,0.7,0.1c0.3,0,0.5,0.1,0.8,0.1c0.4,0,0.7-0.1,0.7-0.6
		c0.8,0.5,1.2,1.8,2,1.8c0.3,0,0.6-0.1,0.9-0.4c-0.1,0.7,0.6,0.6,0.3,1.4c-0.8,0.2-1.1,0.2-2.3,0.5c-0.4-0.5-0.7-1.2-1.7-1.2
		c-0.2,0-0.4,0-0.6,0.1c-0.4-0.6-0.4-1.4-1.2-1.6c0.2,1,0.5,2.1,0.7,2.8l0.3,0.9c0.3-0.4,1-0.5,1.2-1.1c0.9,0.4,1.4,0.7,2.3,0.7
		c0.4,0,0.8-0.1,1.3-0.2c0.3,1.2-1.1,1.5-2.4,1.5c-0.8,0-1.6-0.1-2.1-0.3l1.5,4.5c0.4,1,0.9,2.8,1.2,3.8l1.8,6.3
		c0.3,1.1,0.7,2.8,0.9,3.9l1.1,6.4c0.1,0.6,0.3,1.5,0.5,2.3c0,0,0.1,0,0.1,0c0.5,0,1.2,0.4,0.9,1.1c-0.2,0-0.4,0.1-0.5,0.1
		c-0.1,0-0.2,0-0.3,0c0.1,0.2,0.1,0.4,0.2,0.5l1.8,5.6c0.3-0.4,0.6-0.8,0.8-1.2c0.5,0.2,1,0.4,1,1.1c-0.1,0-0.2,0-0.3,0
		c-0.6,0-0.7,0.4-0.9,0.8c-0.1,0.2-0.1,0.4-0.2,0.6c0.3,1,0.7,2.3,0.9,3.2l1.5,6.3c0.1,0.5,0.3,1.2,0.5,1.9c0,0.1,0.1,0.2,0.1,0.3
		c0.2,0.6,0.3,1.2,0.5,1.7l0.1,0.2c0,0,0.1,0,0.1,0c0.6,0,1.2,0.3,1.5,0.6c-0.1,0.5-0.5,0.7-1,0.7c-0.1,0-0.1,0-0.2,0l1.4,4.8
		c0.1,0.3,0.2,0.7,0.3,1.2c0.6,0.4,1.2,0.9,1.2,1.8c-0.2-0.1-0.4-0.1-0.7-0.1c0.1,0.4,0.2,0.7,0.3,1l2,6.2c0.3,1,0.8,2.8,0.9,3.9
		l0.7,4.4c0.4,0.2,0.4,0.6,0.1,0.9l0.1,0.5c0,0.1,0,0.2,0,0.4c0.4,0.3,0.7,1.1,0.1,1.2c-0.1,0-0.3,0-0.4,0c-0.3,0.5-0.7,0.9-1.2,1
		L353.5,148.3z M360.2,156.9C360.2,156.9,360.2,156.9,360.2,156.9c-1.2,0-1.9-0.4-2.6-0.8c0.4-0.4,0.7-2.2-0.3-2.2
		c0.1-0.3,0.2-0.5,0.4-0.5c0.1,0,0.3,0.1,0.5,0.1c0.2,0.1,0.4,0.1,0.7,0.1c0.1,0,0.3,0,0.4,0c-0.1,0.8-0.1,1.4,0.7,1.4
		c0.2,0,0.4,0,0.6-0.1C360.7,155.9,359.9,156,360.2,156.9z M364.8,152c-2.2,0-4.4,0-6.6,0c-0.5-0.7-0.9-1.4-2-1.6
		c0.2-0.3,0.6-0.4,1.1-0.4c1.1,0,2.7,0.5,3.2,1c0.9-0.2,1.5-0.5,2-1.1c1.1,0.3,0,0.8,0.7,1.6c0.1,0,0.2,0,0.3,0c0.1,0,0.3,0,0.4,0
		c0.2,0,0.3,0,0.4,0C364.7,151.5,365,151.6,364.8,152z M365.8,151.5c-0.1,0-0.2,0-0.3,0c0-0.5,0-0.9,0-1.4c0.4,0,0.9,0,1.3,0
		C366.7,150.8,366.7,151.5,365.8,151.5z M366.7,149.1c-0.7,0-1.8-0.8-1.6-1.8c1.1,0.2,0.8,1.5,2,1.6
		C367,149.1,366.9,149.1,366.7,149.1z M367.4,129.4c-0.2,0-0.4,0-0.7,0c0-0.2,0-0.4,0-0.5c0.2,0,0.4,0,0.7,0
		C367.4,129,367.4,129.2,367.4,129.4z M372.9,152c-0.3,0.8-1.5,1.2-2.6,1.2c-0.3,0-0.6,0-0.8-0.1l-0.5-0.1l-0.2-0.4
		c-0.1-0.2-0.2-0.4-0.3-0.5c-0.3-0.4-0.6-0.9-0.7-1.6l0-0.4l0.4-0.3c0.3-0.3,0.8-0.4,1.2-0.4c0.9,0,1.6,0.6,2.1,1l0.1,0.1l0.1-0.1
		l0.7,0.3C372.9,151.1,373,151.6,372.9,152z"/>
	<path class="st0" d="M97,152.9c-1.8-1-3.3-1.8-4.6-2.4c-1.3-0.6-2.4-1.1-3.3-1.4l-2.7,6.5l0.5,0.2c0.1,0.1,0.3,0.2,0.5,0.2
		s0.4,0.2,0.6,0.3c-0.1,0.2-0.2,0.3-0.3,0.5c-0.1,0.1-0.1,0.3-0.2,0.5c-0.1,0.2-0.2,0.3-0.2,0.5c-0.1,0.2-0.2,0.4-0.3,0.8
		c-1.6,3.8-2,7.2-1.1,10c0.5,1.7,1.4,3.1,2.6,4.1c1.2,1,2.8,1.7,4.5,1.9c0.7,0.1,1.3,0.1,1.9,0.1c0.6,0,1.2-0.1,1.7-0.1
		c0.5-0.1,0.9-0.1,1.2-0.2c0.3-0.1,0.5-0.1,0.6-0.1c0.3-0.1,0.6-0.2,1-0.4c0.4-0.2,0.8-0.4,1.3-0.6c0.5-0.2,0.9-0.5,1.4-0.8
		c0.5-0.3,0.9-0.7,1.3-1c1.2-1.2,2-2.5,2.4-4.1s0.4-3.1-0.1-4.8C104.9,159.2,102,156,97,152.9z M100,165.3c-0.2,0.3-0.5,0.6-0.8,0.9
		c-0.4,0.3-0.8,0.5-1.2,0.7c-0.5,0.2-0.9,0.4-1.3,0.5c-0.3,0.1-0.8,0.2-1.3,0.3s-1,0.1-1.5,0.1c-0.5,0-0.9-0.1-1.3-0.3
		c-0.4-0.2-0.6-0.4-0.8-0.7c-0.2-0.6-0.3-1.3-0.3-2c0-0.7,0.1-1.4,0.3-2.1c0.2-0.7,0.4-1.4,0.7-2.1c0.3-0.7,0.5-1.3,0.8-1.8
		c0.7,0.4,1.5,0.8,2.2,1.3c0.8,0.4,1.5,0.9,2.1,1.4c0.6,0.5,1.2,0.9,1.6,1.4c0.5,0.5,0.7,0.9,0.9,1.4
		C100.2,164.6,100.1,165,100,165.3z"/>
	
		<rect x="143.1" y="121.9" transform="matrix(0.8821 0.4711 -0.4711 0.8821 75.9353 -54.0615)" class="st0" width="5.6" height="5.6"/>
	<polygon class="st0" points="147.9,130.9 153.1,133.7 156,128.4 150.6,125.5 147.8,130.7 142.5,127.9 139.7,133.3 145.1,136.1 	"/>
	<path class="st0" d="M166.6,140.7c-0.4-0.9-0.9-1.7-1.4-2.5s-1-1.6-1.6-2.3c-0.5-0.7-1-1.4-1.5-2c-0.5-0.6-0.9-1.1-1.2-1.5
		s-0.6-0.7-0.7-0.8l-4.4,4.6c0.4,0.5,0.9,1,1.6,1.7c0.6,0.7,1.2,1.4,1.8,2.2c0.6,0.8,1.2,1.6,1.7,2.4c0.5,0.8,0.9,1.6,1.1,2.3
		c0.1,0.4,0.1,0.8,0,1.2c-0.1,0.4-0.3,0.8-0.5,1.1c-0.3,0.3-0.6,0.7-0.9,0.9c-0.4,0.3-0.8,0.5-1.2,0.6c-0.7,0.2-1.2,0.2-1.7,0
		c-0.5-0.2-0.9-0.6-1.2-1.1c-0.3-0.5-0.6-1.1-0.8-1.8c-0.2-0.7-0.4-1.4-0.5-2.1c-0.1-0.7-0.3-1.4-0.4-2c-0.1-0.7-0.2-1.2-0.3-1.6
		l-5.7,0.7c0.1,0.6,0.2,1.3,0.3,2.1c0.1,0.8,0.1,1.6,0.2,2.4c0,0.8,0,1.6-0.1,2.4c-0.1,0.8-0.2,1.5-0.4,2.2
		c-0.2,0.7-0.5,1.2-0.8,1.7c-0.4,0.5-0.8,0.9-1.4,1.1c-0.4,0.2-0.8,0.2-1.1,0c-0.3-0.2-0.6-0.6-0.8-1.1c-0.2-0.5-0.4-1.1-0.5-1.8
		c-0.1-0.7-0.2-1.4-0.3-2.2s-0.1-1.5-0.2-2.2c0-0.7-0.1-1.3-0.1-1.9l-6,0.7c0.1,1.4,0.1,2.7,0.1,4c0,1.3-0.1,2.5-0.4,3.6
		c-0.2,1.1-0.6,2-1.2,2.8c-0.6,0.8-1.4,1.4-2.4,1.7c-0.6,0.2-1.2,0.3-1.6,0.2c-0.5,0-0.9-0.2-1.3-0.4c-0.4-0.2-0.8-0.5-1.1-0.9
		c-0.4-0.4-0.8-0.9-1.2-1.4c-1.9-2.3-3.6-4.3-5.1-6.1c-1.5-1.8-2.8-3.4-3.8-4.7l-3.3-4l-5.4,4.5c0.9,1.1,1.9,2.3,3,3.5
		c1.1,1.2,2.1,2.4,3.2,3.7c1.1,1.2,2.1,2.5,3.2,3.7c1.1,1.2,2.1,2.4,3,3.6c-0.3,0.4-0.8,0.9-1.5,1.5c-0.2,0.1-0.4,0.3-0.6,0.4
		c-0.2,0.1-0.5,0.3-0.7,0.4s-0.5,0.2-0.8,0.3c-0.3,0.1-0.5,0.2-0.7,0.2c-0.5,0.1-1,0.3-1.5,0.3c-0.6,0.1-1.2,0.1-1.8,0
		c-0.7,0-1.4-0.2-2.2-0.4c-0.8-0.2-1.6-0.5-2.5-1l-2.2,6.6c2,1.1,4,1.8,6,1.9c2,0.2,3.9,0,5.8-0.6c1.2-0.4,2.3-0.8,3.2-1.2
		s1.8-1,2.5-1.6c0.5-0.4,0.9-0.8,1.3-1.1c0.4-0.4,0.7-0.7,1-1.1c0.5,0.2,0.9,0.5,1.4,0.6c0.5,0.2,1,0.3,1.6,0.3c0.6,0,1.2,0,1.9-0.1
		c0.6-0.1,1.3-0.2,2.1-0.5c0.1,0,0.1,0,0.2,0l0.4-0.1c0.9-0.3,1.7-0.6,2.4-1c0.7-0.4,1.2-0.7,1.7-1.1c0.5-0.4,0.8-0.8,1.1-1.3
		c0.3-0.4,0.5-0.9,0.7-1.3c0.5,0.3,0.9,0.6,1.4,0.9c0.5,0.2,1,0.4,1.6,0.5c0.5,0.1,1.1,0.2,1.7,0.1c0.6,0,1.3-0.2,1.9-0.4
		c0.8-0.3,1.5-0.6,2.1-0.9c0.6-0.3,1.1-0.7,1.5-1.1c0.4-0.4,0.8-0.8,1.1-1.3c0.3-0.5,0.5-1,0.7-1.5c0.4,0.3,0.9,0.6,1.4,0.8
		c0.5,0.2,1,0.4,1.6,0.5s1.2,0.1,1.9,0.1c0.7,0,1.4-0.2,2.2-0.4c1.6-0.5,2.9-1.1,4-1.9c1.1-0.8,1.9-1.7,2.4-2.8
		c0.5-1,0.8-2.2,0.9-3.4c0-1.3-0.1-2.6-0.6-4C167.4,142.5,167.1,141.6,166.6,140.7z"/>
	<rect x="236.6" y="96.2" transform="matrix(0.8821 0.4712 -0.4712 0.8821 75.2941 -101.3554)" class="st0" width="7" height="7"/>
	<polygon class="st0" points="263.9,91.3 269.2,94.2 272,88.8 266.6,85.9 263.8,91.2 258.5,88.3 255.7,93.7 261.1,96.6 	"/>
	<rect x="282" y="86.4" transform="matrix(0.882 0.4713 -0.4713 0.882 76.0687 -123.909)" class="st0" width="7" height="7"/>
	<path class="st0" d="M321,96.3c-0.2-0.7-0.5-1.3-0.7-1.9l0,0c-0.5-1.1-1-2-1.7-2.9c-0.7-0.9-1.5-1.6-2.4-2.2
		c-1.2-0.7-2.3-1.2-3.5-1.4c-1.2-0.2-2.4-0.1-3.7,0.3c-1.1,0.3-2,0.9-2.8,1.7c-0.8,0.8-1.5,1.7-2,2.9c-0.3,0.8-0.6,1.6-0.7,2.5
		c-0.2,0.9-0.4,1.8-0.5,2.6l0,0c-0.2,0.9-0.3,1.7-0.5,2.6c-0.2,0.9-0.5,1.7-0.8,2.4c-0.4,0.8-0.8,1.4-1.4,2c-0.6,0.6-1.4,1-2.3,1.3
		c-0.5,0.1-0.9,0.1-1.3,0c-0.4-0.2-0.7-0.4-1-0.7c-0.3-0.3-0.5-0.7-0.8-1.1c-0.2-0.4-0.4-0.8-0.5-1.3c-0.4-1.3-0.8-2.4-1.4-3.4
		c-0.5-1-1.1-1.9-1.7-2.6l-5.6,3.3c0.5,0.8,1,1.5,1.3,2c0.3,0.5,0.5,0.9,0.7,1.2c0.1,0.3,0.2,0.6,0.3,0.8c0.1,0.2,0.1,0.4,0.2,0.7
		c0.4,1.3,0.2,2.4-0.6,3.4c-0.8,0.9-2.2,1.7-4.2,2.3l-0.4,0.1c-0.1,0-0.1,0-0.2,0.1c-0.1,0-0.1,0-0.2,0c-0.6,0.2-1.2,0.3-2,0.5
		c-0.8,0.2-1.5,0.3-2.2,0.5c0.2-1,0.4-2,0.4-3.1c0-1-0.1-2.1-0.4-3c-0.4-1.2-1-2.4-1.8-3.4s-1.7-1.9-2.8-2.6
		c-1.1-0.7-2.2-1.2-3.5-1.4c-1.2-0.3-2.5-0.2-3.7,0.1c-1.3,0.3-2.4,1-3.4,2c-1,1-1.7,2.2-2.3,3.5c-0.5,1.3-0.8,2.6-0.8,4
		c-0.1,1.4,0.1,2.7,0.5,4.1c0.2,0.5,0.4,1,0.7,1.5c0.3,0.5,0.6,0.9,0.9,1.2c0.3,0.4,0.7,0.7,1,1c0.3,0.3,0.7,0.6,1,0.8
		c-0.2,0.1-0.3,0.1-0.3,0.1c-0.1,0-0.1,0-0.1,0s-0.1,0-0.2,0c-0.1,0-0.3,0.1-0.5,0.1c-0.3,0.1-0.6,0.2-0.9,0.2
		c-0.3,0.1-0.6,0.2-0.9,0.2l-1.5,0.4c-0.1,0-0.1,0.1-0.2,0.1c-0.1,0-0.1,0-0.2,0l-2.8,0.8c0.2-0.8,0.3-1.6,0.4-2.4
		c0.1-0.8,0.1-1.7-0.1-2.5c-0.3-1.3-0.9-2.4-1.6-3.5c-0.8-1.1-1.8-2-3.1-2.7c-1.3-0.8-2.8-1.2-4.3-1.3c-1.5-0.1-3.1,0.1-4.6,0.5
		c-0.4,0.1-0.7,0.2-1.1,0.4c-0.4,0.2-0.8,0.3-1.2,0.6c-1.6,0.8-3,1.9-4.4,3.2s-2.5,2.8-3.5,4.5c-0.4,0.7-0.8,1.5-1.1,2.4
		c-0.3,0.8-0.6,1.6-0.9,2.5c-0.3,0.8-0.5,1.6-0.7,2.3s-0.4,1.4-0.5,1.9c-0.3-0.5-0.5-1-0.7-1.5c-0.2-0.5-0.4-1-0.5-1.6
		c-0.1-0.5-0.2-1.1-0.3-1.7c-0.1-0.6-0.1-1.2,0-1.9l-6.1-0.1c0.1,1.7,0.1,3.1,0.1,4.2c0,1.1,0,2,0,2.7c0,0.7-0.1,1.3-0.1,1.7
		s-0.2,0.8-0.3,1.1c-0.2,0.6-0.5,1.1-1,1.5c-0.4,0.3-1.3,0.8-2.7,1.3l-0.2,0.1c-0.1,0-0.1,0-0.1,0.1c-0.1,0-0.1,0-0.2,0l-17.1,5.2
		l1.1,6.8c0.1,0,0.3,0,0.5,0c0.2,0,0.4,0,0.6-0.1s0.4,0,0.6-0.1c0.2,0,0.3,0,0.5-0.1c0.8-0.1,1.5-0.2,2.3-0.3
		c0.8-0.1,1.6-0.1,2.3-0.1l0,0c0.7,0.1,1.3,0.1,1.9,0.2c0.6,0.1,1.1,0.1,1.6,0.2c0.5,0.1,0.8,0.1,1.1,0.2c0.3,0.1,0.4,0.1,0.4,0.2
		c0.2,0.5,0.1,1.1-0.3,1.6c-0.3,0.5-0.9,1.1-1.5,1.6c-0.7,0.5-1.4,1-2.2,1.5s-1.7,0.9-2.5,1.3c-0.8,0.4-1.6,0.7-2.3,1
		c-0.7,0.3-1.3,0.5-1.6,0.6c-0.8,0.2-1.6,0.4-2.4,0.6c-0.9,0.2-1.7,0.3-2.6,0.4c-0.9,0.1-1.8,0-2.6-0.1c-0.9-0.1-1.7-0.4-2.4-0.7
		c-0.7-0.4-1.4-0.9-2-1.6c-0.6-0.7-1-1.6-1.4-2.6c-0.2-0.6-0.3-1.1-0.5-1.6c-0.1-0.5-0.3-1-0.4-1.6c-0.1-0.5-0.2-1.1-0.2-1.7
		c-0.1-0.6-0.1-1.3-0.1-2c0-0.7,0-1.6,0.1-2.5c0-0.9,0.1-1.9,0.2-3.1l-6.2-0.6c-0.1,1.4-0.2,2.8-0.2,4c0,1.2,0,2.5,0.1,3.6
		c0.1,1.2,0.3,2.4,0.5,3.5s0.5,2.4,0.9,3.6c0.5,1.7,1.2,3.2,2,4.4c0.8,1.3,1.8,2.4,2.8,3.3c1.1,1,2.4,1.6,3.7,2.1
		c1.4,0.4,2.7,0.6,4.2,0.6s2.9-0.1,4.3-0.4c1.4-0.3,2.8-0.6,4.2-1c1-0.3,2.1-0.7,3.3-1.3s2.4-1.2,3.5-1.9c1.2-0.7,2.3-1.6,3.3-2.5
		c1-0.9,1.9-1.9,2.6-3s1.2-2.2,1.5-3.5c0.3-1.2,0.3-2.5-0.1-3.9c-0.1-0.4-0.4-0.9-0.7-1.4c-0.3-0.5-0.7-1-1.2-1.5l2.4-0.7
		c0.1,0,0.1,0,0.1-0.1c0.1,0,0.1,0,0.2,0c2.4-0.7,4.2-1.7,5.6-2.9c0.2-0.2,0.4-0.4,0.6-0.7c0.2-0.3,0.4-0.5,0.6-0.9
		c0.2-0.3,0.4-0.6,0.5-0.9c0.1-0.3,0.2-0.6,0.2-1c1.1,0.8,2.2,1.3,3.3,1.6c1.1,0.3,2.2,0.4,3.3,0.3c1.1-0.1,2.2-0.2,3.4-0.5
		c1.2-0.3,2.4-0.6,3.6-1c0.7-0.2,1.3-0.4,2.1-0.7c0.7-0.3,1.5-0.5,2.2-0.8c0.7-0.3,1.5-0.6,2.2-1c0.7-0.4,1.4-0.7,2.1-1.2
		c0.4,0,0.7,0,1.1,0s0.8-0.1,1.3-0.2c0.5-0.1,1-0.2,1.6-0.4c0.6-0.2,1.3-0.4,2-0.6l5.4-1.7c0.1,0,0.1-0.1,0.2-0.1c0.1,0,0.1,0,0.2,0
		l0.2-0.1c1-0.3,2-0.7,3.1-1.1c1.1-0.4,2.1-0.8,3.1-1.3c1-0.5,1.9-0.9,2.7-1.4c0.8-0.5,1.4-1,1.9-1.4c1,0.2,1.9,0.2,2.7,0.1
		c0.8-0.1,1.7-0.1,2.5-0.3c0.4-0.1,0.9-0.2,1.4-0.3c0.5-0.1,1.1-0.2,1.6-0.4c0.5-0.1,1.1-0.3,1.6-0.4s1-0.3,1.5-0.4l0.2-0.1
		c0.1,0,0.1,0,0.2-0.1c0.1,0,0.1,0,0.2,0l0.4-0.1c1.9-0.6,3.6-1.3,4.9-2c1.3-0.8,2.4-1.7,3.2-2.7c0.9,0.4,1.9,0.7,3,0.8
		c1.1,0.1,2.3-0.1,3.7-0.5c0.8-0.3,1.6-0.6,2.3-1c0.7-0.4,1.3-0.8,1.8-1.3c0.5-0.5,1-1,1.5-1.6s0.9-1.2,1.3-1.9
		c0.4,0.1,0.8,0.2,1.3,0.3c0.5,0.1,0.9,0.2,1.4,0.3c0.5,0.1,0.9,0.2,1.3,0.2c0.4,0.1,0.8,0.1,1.1,0.2c0.8,0.1,1.6,0.1,2.3,0
		c0.8-0.1,1.5-0.2,2.1-0.4c0.4-0.1,0.7-0.2,1-0.4c0.3-0.1,0.6-0.3,1-0.5c0.9-0.6,1.7-1.4,2.3-2.5c0.6-1.1,1-2.3,1.1-3.6
		c0-0.7,0-1.5-0.1-2.3C321.4,97.8,321.2,97.1,321,96.3z M251,117.1c-0.3,0.6-0.7,1.2-1.2,1.8c-0.5,0.6-1.2,1.1-1.9,1.6
		s-1.6,1-2.4,1.4c-0.9,0.4-1.8,0.9-2.8,1.2c-1,0.4-1.9,0.7-2.9,1c-0.6,0.2-1.2,0.4-1.9,0.5c-0.7,0.2-1.3,0.3-1.9,0.4
		c0.1-0.4,0.3-0.9,0.4-1.4c0.2-0.5,0.4-1,0.6-1.6c0.2-0.5,0.5-1.1,0.7-1.7c0.3-0.6,0.5-1.1,0.8-1.6c0.4-0.6,0.8-1.2,1.3-1.7
		s1.1-1.1,1.7-1.6c0.6-0.5,1.2-0.9,1.9-1.3c0.7-0.4,1.3-0.7,2-0.9c0.5-0.2,1.1-0.2,1.7-0.3c0.6,0,1.2,0,1.7,0.1
		c0.6,0.1,1.1,0.3,1.5,0.6c0.5,0.3,0.8,0.6,1,1.1C251.3,115.8,251.2,116.5,251,117.1z M272.8,109.2c-0.1,0.5-0.2,0.9-0.4,1.4
		c-0.2,0.5-0.4,1-0.7,1.4c-0.3,0.5-0.5,0.8-0.8,1.2c-0.5,0-1-0.1-1.6-0.3c-0.5-0.2-1.1-0.4-1.5-0.7c-0.5-0.3-0.9-0.6-1.2-0.9
		c-0.3-0.3-0.5-0.6-0.6-0.8c-0.2-0.7-0.2-1.3-0.1-1.8c0.1-0.6,0.3-1.1,0.6-1.5c0.3-0.4,0.6-0.8,1-1.1c0.4-0.3,0.7-0.6,1-0.7
		c0.3,0,0.7,0,1.1,0.2c0.4,0.1,0.9,0.3,1.3,0.5c0.4,0.2,0.8,0.5,1.1,0.9c0.3,0.3,0.6,0.7,0.7,1.2
		C272.8,108.4,272.9,108.8,272.8,109.2z M316.1,100.7c-0.1,0-0.1,0.1-0.2,0.1c-0.1,0-0.1,0-0.2,0.1c-0.3,0.1-0.7,0.1-1.2,0.1
		c-0.5,0-1.2,0-1.8,0c-0.7,0-1.3-0.1-2-0.2c-0.7-0.1-1.3-0.2-1.8-0.4l0.2-1.6l0,0c0.3-1.3,0.5-2.3,0.6-3c0.1-0.7,0.3-1,0.5-1.1
		c0.6-0.2,1.1-0.2,1.8,0c0.6,0.2,1.2,0.4,1.8,0.8s1,0.8,1.5,1.2c0.4,0.5,0.7,0.9,0.8,1.4c0.3,0.7,0.4,1.2,0.3,1.7
		C316.4,100.4,316.3,100.6,316.1,100.7z"/>
</g>
</svg>
